<svg id="Layer_1" data-name="Layer 1" xmlns="http://www.w3.org/2000/svg" xmlns:xlink="http://www.w3.org/1999/xlink" viewBox="0 0 1786 1018"><defs><style>.cls-1{fill:url(#linear-gradient);}.cls-2{fill:url(#linear-gradient-2);}.cls-3{fill:#fff;}.cls-4{fill:#ffd13b;}.cls-5{fill:#f05a54;}.cls-6{fill:#406a7a;}.cls-7{fill:#221f1f;}.cls-11,.cls-8{fill:none;stroke:#221f1f;stroke-miterlimit:10;}.cls-8{stroke-width:2px;}.cls-9{fill:#f4f0e9;}.cls-10{fill:#96b46f;}.cls-11{stroke-width:2.25px;}</style><linearGradient id="linear-gradient" x1="893" y1="856.64" x2="893" y2="277.89" gradientUnits="userSpaceOnUse"><stop offset="0" stop-color="#f4f0e9"/><stop offset="1" stop-color="#f19f80"/></linearGradient><linearGradient id="linear-gradient-2" x1="893" y1="1060.46" x2="893" y2="500.96" gradientUnits="userSpaceOnUse"><stop offset="0" stop-color="#fff"/><stop offset="1" stop-color="#f4f0e9"/></linearGradient></defs><rect class="cls-1" width="1786" height="1018"/><path class="cls-2" d="M1786,517c-139.36-69.41-302-65-439.89,6.55-61.06,31.66-115,76.33-183.79,92.41-73.94,17.28-152.42-1.51-224.26-24.41S794,541.09,717.34,540.49C652.23,540,587.64,559.15,523,552.68c-105.51-10.57-185.08-85.14-281.15-124.09C158.4,394.78,88.19,385.85,0,409v609H1786Z"/><path class="cls-3" d="M1786,751c-121-40.79-212-15.31-335.6,16.85s-249.73,71-376.52,55.8C985.14,813,901.68,776.24,814.18,758a633.61,633.61,0,0,0-227.09-5.62c-108.43,17.05-210.91,62.06-319.22,79.9S71.84,834,0,751v267H1786Z"/><path class="cls-4" d="M283.54,763.31s-14.1-4.28-14-7-2.4-14.46,2.62-15.7,41.13-1.22,41.13-1.22l1.92,19.28-12.13,4.31-2,12.19s33.2,83.34,81.14,76.7S441,846.26,443,850.46s4.65,13.11,4.65,13.11A49.67,49.67,0,0,1,418.44,886s6.25,11.45,4,14.42-58.12,39.24-99.21,26.51-96.2-79.92-52-141.19l9.1-9.8Z"/><path class="cls-3" d="M411.59,905.18c-2.94-4-4.68-8.65-6.56-13.28a2.08,2.08,0,0,1,.67-2.08c.58-.39,1.07-.68,1.63-1a54.55,54.55,0,0,1,10.2-4.63L417,885a7.47,7.47,0,0,0-2.89-2.27c-5.64-2.69-11.95-3.46-18.1-4.31-7.69-.9-15.45-1.23-23.22-1.38a81.15,81.15,0,0,1-11.84-.81c-11.87-1.72-22.88-7.82-31.61-15.91-17.38-16.28-27.62-38.59-34.53-61-2.13-6.61-3.93-16-5.58-22.78.95-6.82,2.6-16.9,3.7-23.67-.64,6.72-1.8,16.77-2.54,23.61,2,6.34,3.88,15.17,6.36,22.23a194.05,194.05,0,0,0,8.52,21.62c11.31,24.49,30.23,50.3,58.94,53.59,10.67.73,21.45.72,32.08,2.35a90.84,90.84,0,0,1,11.59,2.35c3.55,1.13,7.58,2.21,10.08,5.18a2.65,2.65,0,0,1,.45.94l.17.63-.68.19a54.62,54.62,0,0,0-10.13,4.08c-.83.51-2.26.87-2,2.09,1.63,4.51,3.17,9.38,5.8,13.46Z"/><path class="cls-3" d="M284.14,801.92c6.86,27.56,17.39,57.47,40.12,75.86a74.46,74.46,0,0,0,10.55,6.75,54.87,54.87,0,0,1-11.4-5.55c-24.15-16.13-36.5-49.12-39.27-77.06Z"/><path class="cls-3" d="M350.68,887.64c16.64-.84,34.05,1.33,50.7,1.12-13.22,4.23-37.08,2-50.7-1.12Z"/><path class="cls-3" d="M441.68,849.83c-2.45,1.89-5.8,3.76-7.52,5.82a45.08,45.08,0,0,0,4.48,9.08c1.21,1.66,2.72,4.18,5.14,3.31-2.19,1.84-5-.71-6.38-2.37a27.79,27.79,0,0,1-4.84-8.7,3.54,3.54,0,0,1-.27-1.53c.37-1.36,1.73-2.1,2.8-2.79a29.42,29.42,0,0,1,6.59-2.82Z"/><path class="cls-3" d="M306,803.45c10.34,20.63,24.32,44.53,46.74,53.31a51.1,51.1,0,0,0,10.1,2.5,38.35,38.35,0,0,1-10.53-1.1c-23.61-6.47-39.66-32.5-46.31-54.71Z"/><path class="cls-3" d="M376.51,858.77c13.53-1.46,28.23-2.93,41.8-3.91a71.83,71.83,0,0,1-20.63,4.8,70.93,70.93,0,0,1-21.17-.89Z"/><path class="cls-3" d="M269.12,745.78a200.05,200.05,0,0,1,38.45.85l-.92.46c1.06-1.33,2.13-2.65,3.23-3.94s2.23-2.57,3.42-3.81c-1.57,3.22-3.34,6.33-5.19,9.39h-.65a198.58,198.58,0,0,1-38.34-3Z"/><path class="cls-5" d="M222.1,778.19c-.39-1.65-1.22-3.13-1.68-4.75a42.47,42.47,0,0,1-1.17-9.61c-.09-1.8-.51-3.7-.49-5.49a51.2,51.2,0,0,1,.38-5.4,53.19,53.19,0,0,0,.69-10.38l-.07,0c-2.42,1.12-4.92-.08-7.47-.54s-5.33-.57-8-.91c.92,4.43,1.19,8.95,2.48,13.31s2.81,8.37,3.18,12.78c.67,7.8-1.68,16.3,1.38,23.74,2.4,0,3.95,2.84,5.86,4,2.49,1.53,4.1-1.61,4.33-3.75.34-3.22.17-6.48.54-9.7A9.45,9.45,0,0,0,222.1,778.19Z"/><path class="cls-5" d="M232.38,635.49c-1.83-.6-3.66-1.2-5.49-1.82-.42,1.26-.85,2.53-1.29,3.78-3.79,10.81-6.68,21.86-9.92,32.84-.16.53-.32,1.05-.49,1.57a48.58,48.58,0,0,1,7.65,5.08c2.14,1.62,4.46,3.15,6.63,4.83,1.1-2.76,2.54-5.4,3.66-8.15q1.53-3.78,2.86-7.62c1.78-5.11,3.34-10.28,5.08-15.39,1-2.86,1.92-5.73,2.85-8.59-.32-.26-.65-.5-1-.75A39.86,39.86,0,0,0,232.38,635.49Z"/><path class="cls-5" d="M240.83,605.24c-2-1.54-3.94-3.14-6.05-4.49-.26,1.94-.53,3.89-.85,5.83a173.42,173.42,0,0,1-6.28,24.79,56.91,56.91,0,0,1,14,6.11c1.06.69,2.08,1.41,3.06,2.17,2.33-7.21,4.57-14.45,6.9-21.68.37-1.12.73-2.24,1.1-3.36-.81-.66-1.61-1.31-2.42-1.94C247.11,610.2,244,607.67,240.83,605.24Z"/><path class="cls-5" d="M287.64,597c.56-6.08,1.11-12.16,1.69-18.24.44-4.46,1.27-9.13.39-13.59-.45-2.27-1.36-4.67-3.3-6.08-2.13-1.55-4.73-2-7.29-2.26A23.65,23.65,0,0,1,272,555.4a33.35,33.35,0,0,1-6-3.78,14.66,14.66,0,0,0-7.29-3.09c-2.36-.24-4.73,0-7.09-.2-5.43-.4-10.72-2.33-16.22-1.88-5.85.48-11.68,1.09-17.53,1.4a38.08,38.08,0,0,1-8.06-.11,26.14,26.14,0,0,0-6.28-.66c-5.69.49-11.06,4.53-15.5,7.86a37,37,0,0,0-9.45,9.76,19.32,19.32,0,0,0-2.82,7,36.32,36.32,0,0,0-.06,7.66c.3,5.42.86,10.84.93,16.27a65,65,0,0,0,1.45,13.78c.24,1,.5,2.07.82,3.1a149.91,149.91,0,0,0,6.72,16.79c2.45,5.59,4.8,11.2,6.73,17,1.84,5.5,3.74,11.26,4.53,17a146.71,146.71,0,0,1,1,17.15c.06,2.67.6,5.72.15,8.35s-1.21,5.14-1.64,7.74a38.63,38.63,0,0,0-.52,9c.18,2.26.9,4.51.82,6.77-.18,4.79,0,10,1.87,14.52.86,2.13,2.14,4.84,4.43,5.78a18,18,0,0,0,4,1c.86.13,1.72.23,2.59.33a38.13,38.13,0,0,1,6.2,1c2.19.63,4.59,1.92,6.78.92a.88.88,0,0,1,.14-.48c2.26-3.73,5.9-6.65,9.05-9.6a23.25,23.25,0,0,1,6.27-3.86,46.34,46.34,0,0,0,7.21-4.21c4.06-2.86,8.21-5.64,12-8.89A45.24,45.24,0,0,0,266.9,697c5.54-9.57,9-20,12.3-30.51,1.51-4.89,3.39-9.83,3.51-15a169.93,169.93,0,0,1,1-17.61C285.31,621.64,286.5,609.34,287.64,597Zm-96,10.15c-3.36-2.38-4.54-7.27-5.3-11.07a112.94,112.94,0,0,1-1.64-12.17c-.36-3.85-.63-8,.34-11.77.74-2.86,2.49-6.17,5.85-6.11.41,0,.41.58.1.73-6.19,3-4.64,12.62-3.87,18.2.49,3.61,1,7.22,1.77,10.78.68,3.09,1.52,7.38,4.28,9.34C194.48,606.07,192.94,608.13,191.59,607.18Zm24.24-52.58a26.14,26.14,0,0,1,7.64,2.54,20,20,0,0,0,3,1.59,22.6,22.6,0,0,1,3.9,1.46c2.86,1.3,5.9,3,9.06,3.37,1.73.2,5.71.08,6,2.42a.71.71,0,0,1-.42.73c-1.16.47-2.22-.3-3.37-.48a35.58,35.58,0,0,1-3.72-.6,51.21,51.21,0,0,1-8.34-3.49,26,26,0,0,0-4.13-1.62,14.37,14.37,0,0,1-2.89-1.75,31.65,31.65,0,0,0-6.92-3.43C215.22,555.21,215.41,554.55,215.83,554.6ZM202.55,657c.52-3.17,2.27-6.41,1.45-9.67-1.13-4.54-3.43-8.89-4.93-13.32a.27.27,0,0,1,.5-.22c1.18,2.29,2.27,4.59,3.35,6.92a40.06,40.06,0,0,1,2.77,6.39c.91,3.57-.62,6.67-1.12,10.16C204.38,658.51,202.33,658.25,202.55,657Zm44.17,42.27c-.85,1.07-2.57-.22-1.7-1.27,4-4.83,8.39-9.34,12.19-14.35,4-5.25,7.85-11.07,8.67-17.75a.38.38,0,0,1,.76.1C265.6,679.45,254.64,689.28,246.72,699.23ZM272,628.6a.91.91,0,0,1-1.15.48c-1.18-.35-1.55-1.31-2.33-2.19a27,27,0,0,0-3-2.89,52.57,52.57,0,0,0-6.31-4.58,48.09,48.09,0,0,1-4.7-3.31l-1.17,4.08c-2,7.14-4.22,14.23-6.47,21.3a110.18,110.18,0,0,1,7.95,7.8c1.51,1.58,3,3.2,4.51,4.75a21.53,21.53,0,0,0,2.08,2,1.86,1.86,0,0,1,.69.7l.1.27a.63.63,0,0,1,.1.41c-.1,1.47-2,.58-2.6.08-1.66-1.42-3.18-3-4.69-4.56-3-3-5.75-6.22-8.9-9l-2.88,9c-1.66,5.17-3.29,10.36-5.12,15.47s-4.42,10.18-6.42,15.35q.56.5,1.08,1c.92.92,1.8,1.86,2.69,2.8a8.24,8.24,0,0,1,2.05,2.48,1.54,1.54,0,0,1-2,2c-1.11-.34-2-1.57-2.72-2.39s-1.57-1.71-2.39-2.53c-3.1,8.58-5.78,17.49-10.71,25.22a2.41,2.41,0,0,1-.76,1c-1.26,1.11-2.78-.65-2-1.92,5.12-8.18,7.82-17.4,11.16-26.36-1.23-.95-2.56-1.82-3.76-2.74l-5.95-4.54a41.51,41.51,0,0,0-4.26-3.16c-1.38,3.79-3,7.45-4.57,11.21-1.4,3.37-3.6,6.31-5,9.65a1.15,1.15,0,0,1-2.14-.86c1.52-3.55,3.77-6.73,5.31-10.3s3-7.09,4.34-10.71c-1.21-.52-2.44-1-3.61-1.64-2.45-1.3-5.18-2.84-5.67-5.83a.48.48,0,0,1,.91-.25c1.4,3.16,6.22,4,9.14,5l.14.05c.24-.74.47-1.48.69-2.23,3.2-11,6.19-22,9.94-32.78.35-1,.69-2,1-3l-4.64-1.58c-3.76-1.3-8-2.21-11.25-4.52-2.87-2-5.61-4.22-9.13-4.93a.34.34,0,0,1,.09-.68,22.67,22.67,0,0,1,8.62,3.45,22.73,22.73,0,0,0,5.18,2.38l5.85,1.81c2,.62,4,1.21,6,1.82a169.25,169.25,0,0,0,6.85-27.11c.21-1.3.42-2.61.65-3.91-.14-.07-.27-.15-.41-.21a82.93,82.93,0,0,0-8.27-3.59c-5.47-2.07-10.95-4.28-15.69-7.76-.36-.26,0-.78.4-.54,5.52,3.62,12,5,18.21,7.1a57.22,57.22,0,0,1,6.2,2.48c.36-1.92.75-3.83,1.19-5.72.75-3.23,1.63-6.74,3.94-9.24a.27.27,0,0,1,.43.32c-2.25,3.24-2.73,8-3.3,11.82-.18,1.24-.35,2.48-.52,3.72l.6.34a88.57,88.57,0,0,1,8.52,6c3.18,2.37,6.28,4.82,9.42,7.23a213.57,213.57,0,0,1,10.45-25.87c.22-.45.91-.18.71.28s-.36.86-.53,1.29c-3.43,8.37-6.24,17-8.82,25.68,2.27,1.7,4.56,3.38,6.92,5a51,51,0,0,1,6.83,5.43C270.53,624.67,272.9,626.61,272,628.6ZM281,608.36a1.82,1.82,0,0,1-.43.07,1.43,1.43,0,0,0-.31.42.61.61,0,0,1-1.09-.44,4.36,4.36,0,0,1,.4-1.49c-.84-3.43.17-7.23.5-10.65a18.29,18.29,0,0,0-.75-7.49c-.61-2-1.28-3.95-2-5.91a.36.36,0,0,1,.67-.28c2,3.9,4,7.93,4,12.39,0,4.08-.46,8,0,12.09A1.17,1.17,0,0,1,281,608.36Z"/><path class="cls-4" d="M659,726.36v0h0Z"/><path class="cls-4" d="M660.4,725.39c.11.17.24.34.37.51l1.56-.43c-.75-.46-1.49-.93-2.22-1.42l-.19.4A4,4,0,0,0,660.4,725.39Z"/><path class="cls-4" d="M454.73,699.62c-3.78-2.63-7.42-5.52-11.24-8-2.68-1.75-5.41-3.45-8.05-5.27L434.28,688c1.68,1.4,2.66,3.45,1.7,5.7s-3,3.37-5.1,4.24c-1.39.57-3.76,1.4-5.42.95l-.13.54c5.43,1.28,11.16,1.45,16.43,3.42a27.84,27.84,0,0,1,4.75,2.25c.88.53,4-1,4.95-1.32l2-.55c.39-.87.77-1.69,1.1-2.39A2.45,2.45,0,0,1,454.73,699.62Z"/><path class="cls-4" d="M425.09,698.77c-3.14-1.32-5.9-5.22-3.82-8.27,1.51-3.32,5.59-4.94,9.24-4.28a8.57,8.57,0,0,1,3.77,1.78l1.16-1.67q-2-1.38-3.95-2.88c-.82-.63-2.91-2.93-4.09-2.73-.76.15-1.48.63-2.25.8-2.23.53-5.8.45-7.17-1.7s.7-4.71-.22-7c-2.63-6.44-11.75-8-17.54-10.27s-10.74-6.32-15.21-10.41a92.64,92.64,0,0,1-10.78-11.72c-1.78-2.28-6.74-9.74-9.87-5.5-1.27,1.7-1.95,4.27-3.94,5.33a8.22,8.22,0,0,1-6.61.68c-4-1.33-8.77-5.55-8.12-10.24.46-3.29,3.21-4.9,5.35-7.09,4-4.14-1.57-8.07-5-10.4-2.54-1.74-4.85-3.45-6.4-6.17-1.17-2.08-2.48-5.22-5.33-5a.92.92,0,0,1-.37,0,2.48,2.48,0,0,0-.3.25c-1.84,1.57-3.14,2.9-1.46,5,2.36,2.9,4.4,7.9,1.53,11.29-3.07,3.63-8.2,1.43-12.19,1.49-3.55.06-5.18,2.25-7.16,4.88a22.61,22.61,0,0,1-3.37,3.57l-2.32,15.68a17.18,17.18,0,0,1,2,.38c3.56.89,6.1,3.82,8.89,6,6.54,5.12,14.57,8.71,22.25,11.73,2.83,1.12,4.35,2.79,6,5.23,2,2.83,4.65,4.13,8,4.81a28,28,0,0,0,9.09.2,12.09,12.09,0,0,1,7.55,1.2c3.4,2,6.92,6,10.86,8a9.87,9.87,0,0,0,5.75,1.16c4.32-.57,9.13-7.08,13.53-2.43,1.24,1.3,3.09,4,2.77,5.9-.1.62-.62,1-.83,1.57-.62,1.68,1.91,3.11,3.08,3.83a62.65,62.65,0,0,0,17.2,7.52l.43.1.13-.54A2.29,2.29,0,0,1,425.09,698.77Zm-94.56-49.5c-6,2.41-13.17-2.37-15.29-8-1.83-4.77.13-9.66,5-11.49,4.1-1.53,9.14-1,11.91,2.67a.1.1,0,0,1,0,.06l0,0,0,0h0l0,.06.08.09c2,2.53,2.21,6.56,2.14,9.62C334.46,645.23,333.43,648.1,330.53,649.27Zm30.14,12.37c-1.37,1.83-3.87,2.58-6.09,2.59a8.29,8.29,0,0,1-8.46-6.18c-.9-3.23.05-7,2.89-9a.1.1,0,0,0,.05,0l0,0s0,0,.07-.06l0,0a.27.27,0,0,1,.1-.06.38.38,0,0,1,.13-.06l0,0,.05,0h.13a8.66,8.66,0,0,1,7.13.75,9.65,9.65,0,0,1,4.34,6.1C361.58,657.5,362,659.91,360.67,661.64Zm21.9,16.42c-5.36-.92-9.54-6.06-10.69-11.19-.81-3.55.13-6.34,2.11-8.24a11.38,11.38,0,0,1,7-2.83,10.88,10.88,0,0,1,2.22.48,14.18,14.18,0,0,1,2.78,1.28,11,11,0,0,1,5.3,8.52C392,671.76,389.79,679.31,382.57,678.06ZM413,675.22c-1.3,3.14-6.25,5.8-8.9,2.53-3.38-3.31-1.67-9.23,2.84-10.06C410.54,667.46,415.21,671.32,413,675.22Z"/><path class="cls-4" d="M303,639.37c-.2,1.19.11,2.84-.36,3.92a2.22,2.22,0,0,1-.23.39c1.6.18,5.46,1.16,7.7.5l2-16.21c-.74,0-3.57,2.64-4,2.95A14.53,14.53,0,0,0,303,639.37Z"/><path class="cls-4" d="M420.32,678.61c2,1.28,4.3.24,6.26-.37,1.43-.43,2.83.35,3.95,1.16,6,4.41,12.23,8.39,18.31,12.65,3.63,2.56,7.18,5.48,11,7.79h0a19.29,19.29,0,0,1-.18-5.5c.28-4-1.1-7.55-2.5-11.2-3.1-8-5.62-16.73-12.68-22.22a1.31,1.31,0,0,1-.37-1.55,7.08,7.08,0,0,0,.31-.92c.77-2.86.24-7-3.4-7.14-2.19-.08-4.33.64-6.52.66a5.55,5.55,0,0,1-4.65-2.2c-1.36-1.75,0-4.2-.15-6.13-.06-.84,1.14-1.89.44-2.6a3.73,3.73,0,0,1-1.06-2.26c0-.21-.59-.63-.64-1.11a4.3,4.3,0,0,1,.83-2.36,4.56,4.56,0,0,1,2-2c1.05-.53,2.63-.88,2.74-2.28.16-2-1.48-4-2.69-5.49-3.12-3.79-6.76-7-9.2-11.31-3.45-6.12-5.85-12.78-8.52-19.26-1.31-3.19-1.81-6.86-3.63-9.82s-4.2-5.82-6.06-8.9c-3.13-5.13-5-12.09-10.8-14.78h0a3.89,3.89,0,0,0-1-.08,13.89,13.89,0,0,0-3.34.85c-1.62.49-3.28,1.12-4.95,1.61-.48.28-.94.57-1.38.85-3.36,2.16-6.05,5-9.18,7.42a36.31,36.31,0,0,1-7.78,4.15c-2,.89-7.71,3.27-6.24,6.39.89,1.92,2.15,3.41,1.89,5.67a7.62,7.62,0,0,1-1,3.13c-.06.39-.17.77-.26,1.24a6.78,6.78,0,0,0,.38,2.7,2.71,2.71,0,0,1-1.3,3c-1.35.83-2.56-1.3-1.21-2.13.3-.18,0-1.51-.1-2.56-4.76,2.41-10.31.28-15,3.11-1.8,1.1-3.74,2-5.59,3.14a9.23,9.23,0,0,1,3.86,4,15.41,15.41,0,0,0,2.76,4.15,65.6,65.6,0,0,0,5.4,4c3.85,2.77,8.7,8,4.48,12.62-1.4,1.53-3.28,2.68-4.48,4.38-1.89,2.69.08,5.84,2.36,7.6,1.81,1.4,4.34,2.69,6.69,1.77,1.69-.67,2.23-2,3.11-3.52,1.17-2,2.84-4.06,5.37-4,3.84.09,6.91,4.33,9,7a93.13,93.13,0,0,0,11,12.13c4.67,4.22,9.7,8.32,15.71,10.45,4.95,1.76,10.75,3.26,14.69,6.94,1.62,1.52,3.22,3.49,3.54,5.78C420.71,674.19,419.72,678.22,420.32,678.61Zm11.59-14.77c3.75-2.43,9.28-2.08,11.9,1.95a8.7,8.7,0,0,1-1.68,11.67,1.18,1.18,0,0,1-.27.22.92.92,0,0,1-.26.16c-3.73,2.26-9.08,1.83-11.64-2.1C427.53,672,427.88,666.45,431.91,663.84Zm-46.7-38.56a1.67,1.67,0,0,1-.24.16,11.67,11.67,0,0,1-15.81-3.05c-3.37-5-3-12.54,2.38-16.13,5.13-3.44,12.49-2.4,16,2.89A11.74,11.74,0,0,1,385.21,625.28Zm10.6-30a2,2,0,0,1-.27.22,1.22,1.22,0,0,1-.26.16c-4.77,2.87-10.87.34-13.83-4-2.79-4.12-4.19-11.37.8-14.61C392.36,570.4,404.84,587.58,395.81,595.25ZM398.38,609c.05-.35.11-.69.19-1a.94.94,0,0,1-.05-.42c.26-2.62,3-4.35,5.41-4.75a6.39,6.39,0,0,1,6.4,2.53c3.83,5.12,0,11.51-6.27,11.35C399.8,616.62,397.87,612.94,398.38,609Zm19.05,39.41a11.52,11.52,0,0,1-15.55-3.26c-3.28-4.89-3.26-12.4,2.09-16a11.53,11.53,0,0,1,15.8,3.11c3.43,5.12,3,11.81-1.88,15.78l-.22.18A1.05,1.05,0,0,1,417.43,648.44Zm-.16,11.81c.29-3.53,5.87-10.27,9.49-6.13a4.62,4.62,0,0,1-.42,6.35c-1.14,1.21-3.17,2.79-5.06,2.74C419.41,663.38,417.08,662.51,417.27,660.25Z"/><path class="cls-6" d="M539.84,822h-.05c-.17,0-17.07-5-22.81.47-1.83,1.74-2.32,4.46-1.45,8.09a28.6,28.6,0,0,0,6.65,12.76c.26-2.63,1.8-4.52,4.58-5.63,9.68-3.83,15.74-.68,18,3.19a7.21,7.21,0,0,1-1.54,9.45c-2.69,2.15-7.34,2.46-12.13.82a24.09,24.09,0,0,1-6.55-3.47c3,8.53,15,20.65,22.13,26.81,2.7-3.63,5.44-7.36,8-11.08,1.81-2.49,3.72-5.11,5.54-7.57,4.95-6.73,9.59-12.76,12.72-16.55l7-8.53q-2.13-5.4-4.57-10.65C567.5,824.84,555.59,825.48,539.84,822Z"/><path class="cls-6" d="M431,716.56c-1.72-.29-4.57.15-6.74-.65-1.86-.69-5.19,2.64-4.36,4.3,6.25,1.1,21.19,2.36,31.61,4.16-1.83-.45-4.16-2.49-8.08-4.79C439.74,717.43,435.19,717.26,431,716.56Z"/><path class="cls-6" d="M501.48,721.76a92.47,92.47,0,0,0-1-14.1c-.16-1.07-.35-2.14-.56-3.21a34.4,34.4,0,0,0-2.82-8.35c-1-2-2.27-4.34-4.33-5.49-5.92-3.29-10,3-12.23,7.54-1.9,3.91-3.55,7.94-5.51,11.82-3.53,7-8.87,14.39-17.55,14.38-.41,0-.81,0-1.22-.06,18.73,3.24,37.55,6.47,37.9,6.53a.8.8,0,0,1,.55.35.86.86,0,0,1,.14.64l-1.45,7.57,7.54,1.36c.07-.69.13-1.38.18-2.08C501.57,733,501.46,727.41,501.48,721.76Z"/><path class="cls-6" d="M422.39,726.87c1.17,1.94,8.56,9,10,10.81l9-.12a.84.84,0,0,1,.94-.68c.32,0,17.71,3.24,50.8,9.12l5-15c-6.86-1.17-61.7-10.35-77.55-13.16C418.82,720.53,421,724.5,422.39,726.87Z"/><path class="cls-6" d="M562.94,810c-7.93-6.76-36.65,14.38-38.26,5-4-3.76-6,24.38-7.45,18.41-1-4.26-.38-7.52,1.92-9.7,6.38-6,23.35-1.19,24.41-.88,15.41,3.4,26.94,2.79,34.41-1.8a148.09,148.09,0,0,0-10.6-18.69c-14,4.83-32.8,5.06-35.62,5.07-4.37,0-9.73-2.23-10.51-12.92-.29-4,1.83-16.85,6.73-28.08l-1-.53c-2.8-1.56-5.65-3-8.57-4.41-4.23-2-8.63-4.18-13.26-4.64-5.88,30.17-13.95,71.73-21.24,109.28,8.39,20.27,23.25,37.74,41.45,50.21,5.54-13.66,34.65-30.47,43.41-42.27C568.87,873.93,562.83,810.18,562.94,810Z"/><path class="cls-6" d="M532.65,819.51c4.26,1.46,8.29,1.25,10.54-.54a5.57,5.57,0,0,0,1.13-7.3c-1.9-3.28-7.21-5.9-15.9-2.46-2.22.88-3.37,2.29-3.54,4.33a8.27,8.27,0,0,0,0,1.4A22.78,22.78,0,0,0,532.65,819.51Z"/><path class="cls-6" d="M555.2,851.29c1.41-.38,2.73-2.27,3.12-3a.35.35,0,0,1,0-.08c8.23-11.63,17.48-24.22,26.89-36.76q-1.07-3-2.2-6c-2,2.46-4.15,5.06-6.42,7.81-3.11,3.77-7.73,9.77-12.66,16.48-1.82,2.46-3.73,5.07-5.53,7.54-2.6,3.75-5.37,7.52-8.1,11.2a31.73,31.73,0,0,0,3.41,2.54A1.76,1.76,0,0,0,555.2,851.29Z"/><path class="cls-6" d="M554.27,849.91a3.41,3.41,0,0,1-2.74-.39,32.88,32.88,0,0,1-3.55-2.65l-.27.36C539,859,530,871.16,524.49,884.78A118.74,118.74,0,0,0,551.13,898c2.37.74,4.75,1.53,7.13,2.31,7.15,2.34,14.37,4.52,21.8,4.31l.06-11.67,11.5,6.71a17.57,17.57,0,0,0,2.22-5.84,55.85,55.85,0,0,0,.91-9.71c1.33-20.78-1.54-42-6.55-62.32-1-3.54-2.16-7.08-3.36-10.59-.09-.29-.19-.57-.29-.85-9.15,12.21-18.14,24.45-26.16,35.78C558.16,846.57,556.53,849.29,554.27,849.91Z"/><path class="cls-6" d="M431,736.64a59.14,59.14,0,0,0,15,12.44q8.73,5.11,17.65,9.88c5.47,2.9,11,6.33,17,7.94.4.11.8.21,1.21.3a1.13,1.13,0,0,1,.54,1.69c-2.23,3.07-2.76,6.9-3.39,10.55-.57,3.29-1.57,6.52-2.16,9.82-1.24,7-2.85,13.29-3.68,20.78-.63,5.64-1.3,15.13-.83,20.79l19.18-90.1c-29.92-5.31-54.76-8.89-59.44-9.56Z"/><path class="cls-6" d="M510.54,800.06c.55,7.54,17.15,13.32,22.45,13.3,2.76,0,22.2-4.58,35.77-9.14-5.73-8.3-14.78-19.15-22.71-25.71A132.24,132.24,0,0,0,527.17,766C522.46,776.85,510.26,796.3,510.54,800.06Z"/><path class="cls-6" d="M496.79,754.6a1.25,1.25,0,0,1-1.45-1.35c.08-.42.17-.84.24-1.26.77-4,1.45-8,1.9-12.06-2.59-.48-5.16-.95-7.69-1.4l-17.66,92.05c.52,4.15,1.22,8.27,2.13,12.35q.76,3.47,1.73,6.87c.93,3.72,9.91,17.38,11.26,21,7.13-36.76,17.54-82.81,23.29-112.28C509.44,758.47,497.91,754.37,496.79,754.6Z"/><path class="cls-7" d="M732.45,755.67a17.21,17.21,0,0,0-.15,9.48c-6.25-4.93-9.95-3.73-12-1.68-3.19,3.19-3.48,9.8-2.13,11.24.73.79,2.39,1.11,4.3,1.49,1.17.23,3.32.65,3.69,1.09-.08.19-.58,1-3.88,2.61-2.15,1.07-3.83,1.25-5.12.54a5.45,5.45,0,0,1-2.14-2.57c1.37-5,3.82-18.47.51-28.36s-1.53-16.4,5.38-20.07a105.74,105.74,0,0,0,12.92-8.59c2.64-2,5.13-3.78,7.56-5.32,1.2-.76,2.66-1.76,4.25-2.87,6.61-4.64,15.3-11.33,15.41-11.41a.81.81,0,0,0,.32-.57.84.84,0,0,0-.18-.63l-2.86-3.46a.83.83,0,0,0-1.14-.15c-.13.1-12.73,9.31-17.94,12.67l-.65.42c-1.39.86-2.51,1.64-3.7,2.47a107.6,107.6,0,0,1-14.53,8.57c-5.36,2.74-8.15,4.26-10,5.26l-.27.15a59.77,59.77,0,0,1-5.71,2.82c-2.58,1.12-4.82.62-7.4.05a17.72,17.72,0,0,0-7.15-.55,79.35,79.35,0,0,0-10.18,2.64c-2,.61-3.82,1.18-5.62,1.63-3,.74-10.49-3.08-13.28-6.67-.13-.17-.26-.34-.37-.51a4,4,0,0,1-.48-.94l.19-.4.46-1c.24-.55.57-1.3-.12-1.72s-1.25.25-1.76.91a2.71,2.71,0,0,0-.35.61,2.65,2.65,0,0,0-.18,1.39c-.38.8-.82,1.73-1.26,2.72a33.74,33.74,0,0,0-2.87,8.57c-.37,3,1.4,7.49,4.53,9.23a5,5,0,0,0,5.85-.68c1.36-1.11,1.44-3.41,1.29-5.43a4.29,4.29,0,0,0,1.31.93,4.77,4.77,0,0,0,4-.19c4.08-1.82,12.89-3.21,15.63-1.42a.92.92,0,0,1,.21.17c-.52,1.38-9.17,4.25-19,6.32a.83.83,0,0,0-.59,1.18,14.54,14.54,0,0,0,1.05,2c4.61,5.64,11,4.1,17.8,2.46a50.17,50.17,0,0,1,9.39-1.63,15.05,15.05,0,0,1,8.53,1.78c3.26,1.94,5.33,5.49,6.34,10.77.29,1.51.49,3.42.69,5.43.41,4,.86,8.34,2.16,11.5a.75.75,0,0,1-.05.16l-.2.67c-1.25,4-1.66,6.15,3.14,8.65a4.86,4.86,0,0,1-3.67.77c-2.36-.58-3.61-3.35-3.62-3.38a.85.85,0,0,0-.74-.5h0a.84.84,0,0,0-.77.44c0,.06-.58,1.08-1.58,2.91-4.39,8-17.47,31.66-33.7,58.75q-2.65,4.42-5.41,8.95-5,8.67-10.4,17.16c-6.68,10.52-13.8,20.82-21.27,30.76-1.48,2-3,4-4.56,6-10.51,14.41-21.09,28.36-33,40.29l2.3.08c11.53-11.76,21.81-25.35,32-39.36,1.54-2,3.07-4,4.56-6,6.51-8.67,12.76-17.61,18.69-26.73q6.84-10.53,13.07-21.34c3.22-5.28,6.34-10.49,9.33-15.53,13.58-22.89,24.44-42.45,29-50.81l1.66-3a7,7,0,0,0,3.94,3c2,.49,4.09-.14,6.28-1.87a.85.85,0,0,0,.31-.77.84.84,0,0,0-.49-.66c-4.75-2.14-4.76-3.28-3.78-6.5a6,6,0,0,0,2,1.84c1.79,1,4,.82,6.69-.5,3.59-1.79,5-3,4.81-4.35-.21-1.56-2.45-2-5-2.51-1.21-.24-3-.6-3.4-1-.58-.71-.57-6.44,2.22-9,3.21-3,8.19.43,11.81,3.82a.84.84,0,0,0,1.35-1c0-.06-2.54-6-.72-11.23a.84.84,0,0,0-.48-1h0A.85.85,0,0,0,732.45,755.67Zm62.23-47.16a1.06,1.06,0,0,0-1.13.07M714,774.9a63.09,63.09,0,0,1-1.26-8.58c-.21-2.05-.41-4-.72-5.58-1.17-6.1-3.73-10.16-7.75-12.26a16,16,0,0,0-6.93-1.66c-.62,0-1.26,0-1.92,0a50.87,50.87,0,0,0-9.7,1.68c-6.52,1.57-12.15,2.92-16.09-1.87-.06-.1-.21-.4-.39-.76,1.69-.38,5.17-1.18,8.65-2.17,9-2.55,10.44-4.11,10.66-5.3a1.77,1.77,0,0,0-1-1.85c-3.61-2.36-13.21-.5-17.24,1.3a3.18,3.18,0,0,1-2.65.19,3.88,3.88,0,0,1-1.77-2.14.71.71,0,0,0-.08-.18c-.26-.44-.7-1.19-1.46-.94s-.7,1-.54,2.41.53,4.73-.51,5.57a3.34,3.34,0,0,1-4,.52c-2.43-1.35-4-5.17-3.68-7.56.32-2.65,2-6.46,3.31-9.35v0h0c2.66,4,11.33,8.84,15.43,7.83,1.84-.46,3.72-1,5.7-1.65a77.44,77.44,0,0,1,10-2.59,16.19,16.19,0,0,1,6.5.53c2.63.59,5.36,1.19,8.44-.15,1.85-.81,2.93-1.33,4.09-1.94l2-1.09c1.83-1,4.6-2.51,9.94-5.24a109.93,109.93,0,0,0,14.73-8.69c1.17-.81,2.28-1.58,3.63-2.43l1.56-1c4.92-3.26,14-9.85,16.49-11.68l1.79,2.18c-2.26,1.73-9.65,7.34-15.22,11.22-1.34.94-2.58,1.78-3.62,2.44-2.48,1.57-5,3.42-7.66,5.39A105.86,105.86,0,0,1,720.12,728c-7.75,4.12-9.78,11.34-6.18,22.08C716.66,758.2,715.3,769,714,774.9Z"/><path class="cls-7" d="M388.28,926.48c.45-2.75.53-4.51,1.31-8.86,3.43-19.31,9.72-52.83,16.18-86.86.28-1.5.57-3,.86-4.51.87-4.59,1.74-9.19,2.61-13.74,8.5-44.67,16.46-85.93,17.64-92,.83.16,2,.36,3.41.61,14.78,2.62,58.14,10.07,64.54,11.17l-1.21,6.29c-30.84-5.48-55.93-9-56.23-9a.77.77,0,0,0-.87.63l-.87,4.54-17.42,91.56-1.14,6-.68,3.57-5.25,27.59-.16.85a.78.78,0,0,0,.63.92l.22,0L448,871.86l20.12,3.69a.78.78,0,0,0,.91-.62l9.36-48.78,16.47-85.8,7.17,1.3,4.89.91c-.76,3.85-1.57,8-2.44,12.46-5.35,27.47-12.63,65-19.28,99.24-6.46,33.28-12.32,63.51-15.22,78.49l1.58.06c2.85-14.71,8.47-43.69,14.71-75.84,6.79-35,14.31-73.73,19.8-101.86.84-4.36,1.65-8.47,2.39-12.26l4.44.84,4.53.65c7.74,1.45,12.45.88,14.4-1.74,2.72-3.64-.64-10.17-3.61-15.92-.54-1-1-2-1.51-3-.81-1.67-.68-3.1.38-4,2.29-2,8.49-1.72,16.7,3.69q1.26.82,2.37,1.41c-.71,1.59-1.17,2.88-1.32,3.3s-2.14,4.93-.28,12.47a36.43,36.43,0,0,0,2.11,6.12h-1.27c-3.89.1-7.57,2-10.91,5.71A43.31,43.31,0,0,0,527.35,764c-4.56,10.47-6.54,22.43-6.26,26.18.72,10,5.72,12,9.79,12,2.62,0,20.17-.21,33.21-4.72,5-1.71,9.27-4,11.85-7.24a11.45,11.45,0,0,0,2.33-10,.14.14,0,0,0,0-.06,75.3,75.3,0,0,0-7.56-16.08c-2.57-4.45-5-8.65-6-13.23-1.66-7.47-.22-14,.91-14.44.06,0,.33.11.7.75,1.67,2.8,3.22,9.8,3.73,14.6-1.32,1.6-2.21,3.21-2,4.46a2.13,2.13,0,0,0,1.42,1.76,1.4,1.4,0,0,0,1.65-.37c.67-.77.8-2.8.61-5.34a30,30,0,0,1,4.75-4.28c3.18-2.3,8-3.12,10.12-2.3q.68.27.75.69c.33,1.72-3.3,6.21-8.09,10l-.6.47a17.28,17.28,0,0,0-5.48.81c-1.57.62-1.92,1.51-1.93,2.15a1.57,1.57,0,0,0,.82,1.56c1.23.64,3.64-.37,7.16-3,6.2,0,14.67,1.58,17.15,4.13,1.19,1.23.78,1.91.64,2.13-1.24,2-7.53,3.13-11.53,2-2.45-2.24-5.17-4.24-7.12-4.59a2.53,2.53,0,0,0-2,.34,1.29,1.29,0,0,0-.6,1.28c.18,1.11,1.74,2.23,8.91,4.37a36.88,36.88,0,0,1,4.82,5.34c1.21,1.78,1.4,3.6,1,3.9,0,0-1.11.72-5.69-3.57l-1.28-1.2c-7-6.54-7.92-7.34-8.88-6.61-.76.57-.4,1.6,1,4.22s2.16,3.92,2.8,5a38.39,38.39,0,0,1,2.68,5.25c.3.91,6.52,20.51-3.07,31.19a17.68,17.68,0,0,1-4,3.34c-7,4.28-17.71,4.85-32.07,1.68-1-.29-16.81-4.82-22.76.82-2.14,2-2.74,5.07-1.79,9a27.81,27.81,0,0,0,7.83,13.86c1.51,8.75,14.38,21.68,21.77,28l-.31.41c-8.16,11-16.56,22.3-21.72,35a72.24,72.24,0,0,0-3,9,67.19,67.19,0,0,0-1.78,7.38,47.72,47.72,0,0,0-.55,14.29l1.77-.51a42.62,42.62,0,0,1,.32-13.5,65.78,65.78,0,0,1,1.75-7.24,69.45,69.45,0,0,1,2.83-8.54c5.08-12.7,13.48-24,21.64-35l.25-.34a32,32,0,0,0,3.31,2.47,3.19,3.19,0,0,0,2.55.36c2.11-.57,3.63-3.11,3.84-3.48,7.48-10.56,15.86-22,24.39-33.36,28.51-38.06,58.72-75.85,62.58-80.66,3.17,1.67,5.23,2,6.46,1s1.28-2.59.55-5.27a.72.72,0,0,0-.09-.2c-1.22-2-2.73-3-4.5-3.13h-.09c-4.85-.16-10.35,6.94-15.21,13.21-1.66,2.14-3.23,4.17-4.56,5.6-6.13,6.61-19.92,24-27.1,33.52-5.3,7-11.89,15.3-21.37,26.88-2,2.49-4.21,5.13-6.54,8-2.91,3.54-7.24,9.16-11.85,15.43-1.7,2.3-3.48,4.74-5.16,7-2.41,3.47-5,7-7.48,10.34-6.7-5.75-17.83-17-20.62-25a22.29,22.29,0,0,0,6.1,3.22c4.46,1.54,8.8,1.25,11.3-.76a6.71,6.71,0,0,0,1.44-8.81c-2.09-3.6-7.73-6.54-16.76-3a6.12,6.12,0,0,0-4.27,5.25,26.61,26.61,0,0,1-6.19-11.9c-.82-3.38-.36-5.91,1.34-7.53,5.36-5.08,21.1-.49,21.26-.45l.06,0c14.67,3.24,25.77,2.64,33.11-1.78a19.69,19.69,0,0,0,4.53-3.72c10.38-11.57,3.67-31.91,3.37-32.77a.14.14,0,0,0,0-.07,40.77,40.77,0,0,0-2.79-5.46c-.63-1-1.41-2.34-2.75-4.9-.27-.52-.48-.94-.65-1.28,1.36,1.12,3.61,3.22,6.1,5.55l1.28,1.2c3.86,3.61,6.4,4.79,7.78,3.61s.42-4.23-.76-6a33,33,0,0,0-3.35-3.93c4.24.39,9.43-.75,10.88-3.14.44-.72.92-2.21-.85-4-2.68-2.76-10.15-4.32-16.37-4.55,3.92-3.27,8.28-8,7.75-10.78a2.5,2.5,0,0,0-1.71-1.86c-2.81-1.12-8.24.05-11.62,2.49a33.36,33.36,0,0,0-4.05,3.49c-.68-5.17-2.36-11.45-3.79-13.86-1-1.72-2.09-1.61-2.63-1.4-2.54,1-3.46,9.06-1.86,16.24,1.08,4.81,3.57,9.12,6.2,13.68s5.5,9.51,7.42,15.71a9.85,9.85,0,0,1-2,8.67c-2.47,3.05-6.67,5.29-11.53,6.92-12.65,4.26-29.75,4.46-32.32,4.47-4.94,0-7.71-3.55-8.22-10.59-.25-3.5,1.72-15.17,6.11-25.32a41.78,41.78,0,0,1,6.9-11.36c3-3.36,6.34-5.1,9.79-5.19.67,0,1.33,0,2,0,4,8.16,11.18,16.71,21.46,25.53a.78.78,0,0,0,1.27-.77c-3.75-16.29-11-25.09-21.68-26.24a36.55,36.55,0,0,1-2.35-6.45c-1.87-7.41.13-11.57.15-11.61l0-.1c.26-.78.7-1.91,1.27-3.17,5.63,2.5,8.17.38,9.08-.82,1.67-2.2,1.47-5.95-.39-7.57a3.49,3.49,0,0,0-3.29-.86c-2.48.67-4.67,4.11-6.16,7.14-.69-.37-1.42-.81-2.16-1.3-8.95-5.89-15.79-6-18.6-3.56-1.62,1.42-1.89,3.57-.76,5.9.48,1,1,2,1.53,3,2.62,5.08,5.87,11.41,3.75,14.26-1.54,2.07-5.86,2.45-12.89,1.13l-4.53-.64-4.4-.84c2.35-12,4.06-20.74,4.78-24.32,1.81-9-.77-19.31-7.46-29.85a78.24,78.24,0,0,0-10.43-13l1.08-7.29,2.46-16.66,6.31-42.77,1.9-2.16a.92.92,0,0,0,.19-.4l2.46-16.4a.79.79,0,0,0-.24-.69l-4.63-4.31.67-.83a.8.8,0,0,0,.16-.35l.4-2.12h0c.49-2.6.88-4.67.95-5a5.12,5.12,0,0,0-1.13-3.4c-1.15-1.62-3.54-3.7-8.33-4.53l-.16,0c-7.78-1.24-11.13,2.26-11.47,4.05l-.41,2.18h0c-.53,2.8-.93,5-.93,5a.74.74,0,0,0,0,.39l.32,1-5.88,2.34a.8.8,0,0,0-.48.56l-3.66,16.16a.86.86,0,0,0,0,.45l1,2.7-15.09,65.73A78.25,78.25,0,0,0,446.74,676c-10.07,7.38-16.22,16.05-17.81,25.09-.15.89-.37,2.11-.64,3.61-.09.36-1.42,5.4-4.76,7.35a5.83,5.83,0,0,1-4.69.49,10.35,10.35,0,0,1-4.5-2.51c3.77-4.18,6.35-9.56,5.39-14.9-.83-4.7-2.55-5.65-3.85-5.61-2.92.07-5.36,5.17-5.95,9.85-.54,4.3.29,7.94,2.3,10.59a25.92,25.92,0,0,1-4.65,3.75,18.94,18.94,0,0,1-5.09,2.33,209.31,209.31,0,0,0,1.67-34c-.1-2.08-.24-3.94-.43-5.67C403.07,658.11,391,641.5,374.42,636a53,53,0,0,0-10.06-2.26A57.15,57.15,0,0,0,333.25,638c-10.46,4.59-18.54,12.07-22.74,21.08a.36.36,0,0,0,0,.09,14.26,14.26,0,0,0-.64,5.76,13.13,13.13,0,0,0,2.08,5.78l0,.07a17.54,17.54,0,0,0,6.3,4.53,51.26,51.26,0,0,0,12,3.56A177.83,177.83,0,0,0,349,680.81c17.19,1.19,36.67,2.53,43.21,11.46,2.25,3.07,2.8,6.8,1.69,11.4-2,8.28,0,11.73,2,13.17a7.11,7.11,0,0,0,4.79,1.13c-.83,6.57-1.75,12.38-2.45,16.76-.16,1-.34,2.15-.54,3.46-1.27,8.09-3.4,21.64-6.52,38-.2,1-.4,2.12-.61,3.18s-.51,2.38-.77,3.56-.54,2.37-.82,3.56l-.84,3.55-.87,3.56c-.32,1.29-.63,2.58-.95,3.88l-.81,3.26c-.25,1-.49,2-.74,3l-.3,1.25c-.48,1.7-1,3.47-1.46,5.33-.22.86-.45,1.73-.68,2.63-.44,1.71-.89,3.51-1.36,5.45l-.33,1.3-.78,3.14c-1.93,7.35-3.77,14.14-5.63,20.75q-1,3.43-1.95,6.87c-3.49,12.59-8.16,27.12-15.38,40.93q-1.65,3.18-3.5,6.29-2.55,4.29-5.47,8.4a98.86,98.86,0,0,1-11.27,13.2c-1.24,1.12-2.47,2.2-3.66,3.2-2.3,1.94-23.75,19.91-26,21.48l1,1c1.73-1.28,24.22-19.79,26-21.28,1.21-1,2.45-2.1,3.72-3.25A99.89,99.89,0,0,0,349,907.3a119.33,119.33,0,0,0,8.08-12.88q2.56-4.68,4.73-9.46a229.14,229.14,0,0,0,12-34c.65-2.28,1.31-4.57,2-6.86,1.86-6.63,3.71-13.42,5.64-20.78l.78-3.16.33-1.3c.59-2.45,1.16-4.69,1.7-6.79l.65-2.46c.39-1.43.77-2.8,1.15-4.14l.36-1.49.69-2.82.8-3.26c.32-1.29.64-2.59.95-3.88l.87-3.56c.29-1.19.57-2.38.85-3.57s.55-2.38.82-3.57.52-2.38.78-3.59.41-2.14.61-3.2c3.13-16.39,5.26-30,6.53-38.06q.3-1.95.54-3.45c.71-4.5,1.67-10.48,2.51-17.25a20,20,0,0,0,6.14-2.67,29.1,29.1,0,0,0,4.86-3.89,11.88,11.88,0,0,0,5.13,2.9,7.36,7.36,0,0,0,5.91-.64c4-2.36,5.44-8.12,5.5-8.36a.09.09,0,0,0,0-.05l.65-3.64c3.66-20.92,31.39-32.29,31.67-32.4a.81.81,0,0,0,.47-.55l15.23-66.35a.82.82,0,0,0,0-.44l-1-2.71,3.52-15.54,6.18-2.46a.79.79,0,0,0,.46-1l-.49-1.53c.07-.37.24-1.23.45-2.39.45-2.37.8-4.22.86-4.56.12-.65,2.37-3.85,9.38-2.84l.09,0c4.51.69,6.65,2.52,7.66,3.94a4,4,0,0,1,.88,2.21l-.74,3.9-.57,3-1,1.25a.77.77,0,0,0,.08,1.06l4.86,4.54-2.37,15.76-1.9,2.16a.91.91,0,0,0-.19.41l-6.6,44.76-2.21,14.95-1.13,7.63a.85.85,0,0,0,.24.69c.22.2,21.91,20.88,17.72,41.69-.72,3.58-2.43,12.3-4.78,24.34l-5-.93-7-1.28,1.35-7a.76.76,0,0,0-.13-.6.74.74,0,0,0-.51-.32l-35.33-6.08-3.93-.68c-9.72-1.68-19-3.29-24.82-4.32l-5.4-1a.79.79,0,0,0-.92.62c-.16.88-8.62,44.71-17.73,92.53q-1,5.17-2,10.39c-.58,3-1.15,6.1-1.73,9.15-6.42,33.81-12.64,67-16,86.08-.8,4.49-1.45,8.21-1.9,11m14.76-212.16a5.76,5.76,0,0,1-4.08-.81c-2.31-1.66-2.79-5.64-1.37-11.52,1.21-5,.55-9.28-1.95-12.7-7-9.51-26.84-10.88-44.37-12.09a175.69,175.69,0,0,1-18.59-1.89,49.94,49.94,0,0,1-11.58-3.44,16.32,16.32,0,0,1-5.73-4.07,11.55,11.55,0,0,1-1.81-5.06,12.64,12.64,0,0,1,.56-5.07c9.18-19.6,33.73-27.2,52.2-24.38a50.58,50.58,0,0,1,9.78,2.19c16,5.26,27.61,21.3,28.24,39v.05c.19,1.71.33,3.54.42,5.6A208.7,208.7,0,0,1,400.87,716.37Zm12.44-7.54c-2.21-3.13-2.09-7.15-1.82-9.24.59-4.73,2.87-8.45,4.43-8.49H416c.91,0,1.74,1.64,2.22,4.32C419,700,416.75,704.92,413.31,708.83Zm64.53,111.93-10.19,53.11-19.89-3.65-33.56-6.16-1.51-.28.25-1.31,4.55-23.93.7-3.7,1.67-8.74L437,736.26l1-5.09c4.36.62,27.52,4,55.41,8.91ZM572.72,760a.72.72,0,0,1,0-.15c0-.22.36-.49.93-.72a10.72,10.72,0,0,1,2.45-.56C574.18,759.8,573.05,760.12,572.72,760Zm4.72,3.61a1.45,1.45,0,0,1,.55,0,9.69,9.69,0,0,1,3.41,1.77A15.31,15.31,0,0,1,577.44,763.65Zm-20.82,94c1.68-2.3,3.46-4.74,5.15-7,4.6-6.25,8.9-11.85,11.8-15.36q3.18-3.84,6-7.28c9.78-12,16.54-20.45,22-27.61,7.17-9.48,20.91-26.82,27-33.39,1.38-1.48,3-3.54,4.65-5.71,4.4-5.68,9.86-12.74,13.91-12.6h.07a4.15,4.15,0,0,1,3.19,2.29c.69,2.6.2,3.32,0,3.51s-1.5.63-5.32-1.49a.79.79,0,0,0-1,.2c-.41.51-32.23,40.15-62.38,80.36-8.77,11.69-17.4,23.43-25.07,34.27l0,.08c-.37.65-1.59,2.41-2.91,2.77a1.68,1.68,0,0,1-1.34-.2,29.28,29.28,0,0,1-3.18-2.37C551.61,864.66,554.2,861.15,556.62,857.65Zm-26.71-23.42c8.1-3.2,13-.76,14.82,2.3a5.17,5.17,0,0,1-1.06,6.8c-2.09,1.67-5.85,1.86-9.81.5a21.06,21.06,0,0,1-7.22-4.26,7.12,7.12,0,0,1,0-1.3C526.76,836.37,527.84,835.05,529.91,834.23Zm40-77.68c-.32-.14-.38-.31-.4-.47a3.26,3.26,0,0,1,.67-1.85A5.09,5.09,0,0,1,569.9,756.55ZM568,771c-9.91-8.81-15.54-16.42-18.71-22.49C558.18,750,564.46,757.5,568,771ZM553.4,717.73a1.9,1.9,0,0,1,1.85.52c1.14,1,1.45,3.75.17,5.44s-3.84,1.83-7.17.36C549.66,721.19,551.55,718.22,553.4,717.73Z"/><path class="cls-7" d="M235.45,876c.75-22.56-5.24-61.42-7.48-76-1.91-12.39-12.07-71.38-21-123.43-6.41-37.23-11.95-69.38-13.3-77.67-.42-2.63-1-7.08-1.68-12.72-3.4-27.33-10.47-84.18-25.67-117.38-.93-2-1.89-4-2.88-5.82-.49-.81-1-1.64-1.45-2.46-5-8.52-10.16-17.33-20.45-20.45a30.11,30.11,0,0,0-33.74,14.28,35,35,0,0,0-2.66,4.72c-5.8,12.8-5.38,34.95-4,51.28,1.54,18.24,4.68,34.07,5.64,36.16a.84.84,0,0,0,1.39.21c2.57-2.87,5.06-5.87,7.47-8.77,6-7.18,12.15-14.62,19.76-20.4a78.34,78.34,0,0,1,6.9-5,35.4,35.4,0,0,1,3.66-2.06,24.09,24.09,0,0,1,7.73-2.35c1.92-.18,3.54,1,4.44,3.14,2.05,5-.13,13.51-8.27,20.23-.78.64-1.73,1.45-2.82,2.38-4.13,3.51-11,9.4-17,13.13a20.47,20.47,0,0,0,.52-2.82.82.82,0,0,0,0-.27,7.45,7.45,0,0,0-2.41-3.91c-1.7-1.49-3.88-1.53-6-.11-3,2-5.38,6.71-4.13,10.3l.1.2a3.89,3.89,0,0,0,2.81,1.67c1.67.22,3.77-.35,6.15-1.48-1.11,2.73-2.56,5.52-4,8.26-3.61,6.93-7,13.48-5.23,19a9.39,9.39,0,0,0,2.32,3.75,70.83,70.83,0,0,0-4.83,33.68c0,.76.61,10.45,8.33,14.09l.44.19a55.84,55.84,0,0,0-2.19,17.56c-.3,7,0,23.82,9.61,29.6A12.55,12.55,0,0,0,134.5,678a66.87,66.87,0,0,0,.54,11.56c1.18,8.56,4.12,16,7.69,19.54a8.32,8.32,0,0,0,2.87,1.82,73,73,0,0,0-2.26,11.71c-.15,1-2.52,16.44,4,24.53a12.51,12.51,0,0,0,8.29,4.61l0,.07c-4.5,15.17-4.9,27.27-1.08,33.21,1.73,2.69,4.81,4,9.16,4.06-4.11,11.11-6.66,20.83-7,23.79-.72,6.73,1.45,15.15,7.91,18.79.26.15.54.29.83.43-.38,3.07-.64,6.3-.78,9.71-.65,15.29,1.5,24.61,6.56,28.46a8.06,8.06,0,0,0,.73.51q-.19.87-.36,1.74a.76.76,0,0,0,0,.15c-.19,11.3,2.5,13.84,10.68,15.72,9,2.05,32.57-4.26,51.37-10.13a39.86,39.86,0,0,1-1.38,9.18c-4,11-10.26,18.89-18.18,23.1l3.13.11c7.18-4.64,12.86-12.33,16.64-22.67a43.76,43.76,0,0,0,1.5-10.25M121.07,550.41a2.26,2.26,0,0,1-1.58-.87c-.86-2.73,1.16-6.64,3.52-8.23a3.06,3.06,0,0,1,3.95,0,5.8,5.8,0,0,1,1.85,2.89,21.48,21.48,0,0,1-1,4.09C125.15,549.75,122.76,550.63,121.07,550.41Zm61.61,336.38c-7.52-1.73-9.55-3.67-9.38-14l.24-1.2c4.2,1.69,9.22.37,13.73-1.08,1.21-.41,29.73-10.31,36.23-25.32a14.52,14.52,0,0,0-.06-12.13c-1.18-3.05-4.5-4.49-9.37-4.06-13.54,1.18-35.37,16-41.65,40.06l-.14-.11c-4.53-3.45-6.51-12.55-5.9-27.05q.19-4.8.71-9.15c6,2,16.37.75,33.33-12.17,7.87-6,13.21-11.91,15.87-17.58,2.91-6.22,1.85-10.51.45-13-3-5.39-10.54-7.42-17.5-4.72-11.53,4.47-19.84,11.1-25.4,20.27-4.05,6.67-6.73,14.85-8.13,24.81l-.24-.13c-5.79-3.26-7.72-11-7.06-17.14.38-3.56,3-13.23,7.12-24C179.78,788,204,773.45,209,763c3.55-7.42,3-15.23-1.29-18.58-2.7-2.11-9.13-4.07-21.82,6.46-8.71,7.24-16.31,22.78-21.57,36.61-4.09.12-6.91-1-8.39-3.28-3.73-5.8-2.7-18.48,1.39-32.23h0c12.13.42,30.75-9.57,40-21.52,5.62-7.25,7.51-14.57,5.47-21.19-1.52-4.94-4.34-8-7.93-8.73-5.47-1-12.43,3.45-20.13,13-7.41,9.2-14.31,22.79-18.65,36.65a10.92,10.92,0,0,1-7.48-4c-6.14-7.59-3.69-23.08-3.66-23.23v0a69.15,69.15,0,0,1,2.24-11.43,20.52,20.52,0,0,0,9.68-.86c15-4.42,35.7-21.28,38.93-35.59,1.19-5.28-.16-9.85-3.92-13.22l-.05,0c-2.87-2.2-6.71-2.37-11.1-.48-12.26,5.28-28.16,26.11-34.72,48.09a6.48,6.48,0,0,1-2.16-1.4c-3.84-3.77-8.25-14.77-7.75-29.55,4.34.65,9.5-.75,15.4-4.18,12.71-7.64,32.46-24.17,34.77-38.35a13.19,13.19,0,0,0-2.9-11.15l-.12-.11c-3.47-2.78-8.44-3.43-14-1.83-5.77,1.66-11.89,5.63-17.24,11.17a59.59,59.59,0,0,0-13.28,21.78,77.07,77.07,0,0,0-4.21,20.58,11,11,0,0,1-2.26-1c-6.11-3.7-9.4-14.21-8.8-28.12v-.07a53.74,53.74,0,0,1,2.11-17c8.46,2.4,21-2.74,37.41-15.31,13.82-10,18.56-23.12,15.16-29.95-2.06-4.15-6.63-5.5-12.53-3.71-8.37,2.53-19.71,11.6-28.22,22.56a77.37,77.37,0,0,0-12.94,24.22l-.19-.09c-6.95-3.27-7.38-12.57-7.38-12.67v-.06a69.26,69.26,0,0,1,4.44-32.4,17.47,17.47,0,0,0,2.81,1.72c5.56,2.73,12.7,2.42,20.65-.9,12.63-5.28,25.6-17.66,28.91-27.61,2.25-6.75.19-10.42-1.92-12.31-4.16-3.72-11.44-3.39-16.19-1.19-12.63,5.84-23.71,16.48-31.19,30a78.29,78.29,0,0,0-3.66,7.48,7.87,7.87,0,0,1-1.43-2.55c-1.57-4.8,1.69-11,5.14-17.65a82.53,82.53,0,0,0,4.75-10.21c5.65-3.22,12.48-8.84,18.85-14.26,1.08-.92,2-1.73,2.8-2.36,9.18-7.58,11-16.81,8.75-22.17-1.18-2.86-3.48-4.42-6.17-4.17a25.63,25.63,0,0,0-8.29,2.51,39.73,39.73,0,0,0-3.82,2.15,79.1,79.1,0,0,0-7,5.1c-7.74,5.88-14,13.39-20,20.65-2.1,2.51-4.25,5.11-6.45,7.61-2.49-9.49-11.37-62.34-1.23-84.73a33.22,33.22,0,0,1,2.55-4.51l0-.05a28.4,28.4,0,0,1,31.83-13.51c9.63,2.92,14.63,11.44,19.46,19.68.48.83,1,1.65,1.44,2.44,1,1.78,1.9,3.69,2.81,5.69,15.1,33,22.14,89.64,25.53,116.89.7,5.65,1.26,10.12,1.69,12.78,1.35,8.3,6.89,40.46,13.3,77.69,9,52,19.12,111,21,123.4,5.51,35.81,8,61.35,7.45,76.22C215,882.35,191.31,888.77,182.68,886.79ZM173.93,870a54.79,54.79,0,0,1,16.9-27.49c7.44-6.65,16.4-11.16,23.38-11.77,2.36-.2,6.49-.09,7.66,3l0,0a12.86,12.86,0,0,1,.07,10.8c-6.2,14.33-34.94,24.3-35.22,24.39C182.27,870.37,177.64,871.59,173.93,870Zm-6.63-38.88c3.1-23.23,13.19-36.71,32.55-44.21,6.18-2.4,12.81-.69,15.42,4,1.73,3.1,1.56,7.07-.51,11.47-2.53,5.42-7.7,11.13-15.36,17C182.65,832,172.85,833.05,167.3,831.07Zm-1.09-43.76C171.5,773.73,179,758.8,187,752.12c6.28-5.21,11.81-7.87,15.86-7.73a6.42,6.42,0,0,1,3.85,1.31c3.62,2.82,4,9.92.8,16.52-2.17,4.54-8.91,10.61-17.6,15.85C181.43,783.2,172.68,786.59,166.21,787.31Zm-8.35-37c4-12.69,10.5-26.09,18.25-35.71,8.31-10.31,14-12.64,17.45-12.52a5.81,5.81,0,0,1,1.05.12c3.79.72,5.7,4.51,6.65,7.57,2.36,7.66-1.52,14.92-5.2,19.66C187.18,740.82,169.54,750.42,157.86,750.26ZM147.72,709.8a100,100,0,0,1,11.16-24.2c7.12-11.27,15.56-19.8,22.57-22.82,3.85-1.65,7-1.57,9.39.25,3.31,3,4.44,6.87,3.38,11.57-3,13.39-23.29,30.08-37.77,34.34A19.43,19.43,0,0,1,147.72,709.8Zm-11.48-33.12a75.63,75.63,0,0,1,4.13-20.43c6.21-17.87,19.6-29.06,29.41-31.88,5.05-1.46,9.34-1,12.42,1.47a11.59,11.59,0,0,1,2.47,9.73c-2,12.18-18.6,27.93-34,37.18C145.07,676,140.23,677.33,136.24,676.68Zm-10.13-48.2c7.26-23.16,27.82-42,40.05-45.74,5-1.53,8.87-.49,10.53,2.85,3.09,6.2-1.54,18.32-14.65,27.85C146.31,625.51,134,630.66,126.11,628.48ZM122,581.06c6.65-16.15,18.91-30,34.31-37.13,4.33-2,10.88-2.21,14.37.91,2.49,2.23,3,5.87,1.44,10.53-3.17,9.55-15.71,21.47-28,26.59-5.22,2.18-12.8,4.12-19.25.94A14.4,14.4,0,0,1,122,581.06Z"/><path class="cls-8" d="M234.14,877.43a90.18,90.18,0,0,0,12.69-4.31l-2.4-28.68c34.05,4.37,92.87-2.33,109.89-13,5.65-3.53,5.52-6.13-2.66-2.9-34.39,13.56-70.2,11.9-86.79,11.75-22.29-.2-20.71-6-13.06-5.7s68.43,5.43,98.38-11c8.47-4.65,6.78-6.05,4.45-6.46-1.49-.25-5.93,1.2-7.31,1.82-40.25,17.9-105.13,10.22-105.13,10.22l-5-49c17.54,10.23,74.66,5,85.55,3.34,35.32-5.33,35.1-19.49,25.41-12-11.21,8.69-67.81,13.09-90.13,9.52-21.94-3.51-23.73-7-12.17-5.83s60.85,7.45,92.68-5.31c22.39-9,14.64-13.55,5.18-8.26-18.43,10.3-68.44,14-90.13,9.43-16-3.37-24.2-9.73-8-6,50.22,11.57,92.25-4.77,102.69-10.95,7.11-4.21,5.62-5,3.65-5.1a8.57,8.57,0,0,0-3.63.73c-52.53,22.52-108.71,9.95-115.21,6.73L231,736.05s53.42,6.24,102.45-13.36c38.71-15.47,18.47-20.81,14.24-19.59s12.17,6.2,5.4-5.31c-9.51-16.19-107.41-9.79-118.21,12.37s90,6.46,89.76,4.45-5.89-7.86-17.54-8.17,4.07-9.94,13.63-8.72-9.67,11.89-21.32,11.63H299c-7.26-.3-8.67-10.5-1.76-12.73,8-2.57,22-5.08,36.61,1.72,22.4,10.45-19.16,25.62-38.58,27.34s-65.5,3.73-63-2c5.46-12.48-4.76,4,2.59,7.55,7.85,3.81,102.69,3.16,120.21-13.65l14.63,142.84s-.77,6.61-5.38,4.18,3.65-6.91,15.12-4.81,12.71,10.67,12.71,10.67-119.07,17.65-131.59-1.76S270.75,929.5,312,946c20,8,36,8,49,7,14.05-1.08,23.86-11.22,26.09-25.14l.35-2.21"/><path class="cls-5" d="M1472.53,631.71a7.57,7.57,0,0,0,.56,6.08c1,1.7,2.47,2.41,3.14,2.27,1.09-.23,2.48-1.79,2.82-3.75a3.85,3.85,0,0,0-1.91-4.2A6.07,6.07,0,0,0,1472.53,631.71Z"/><path class="cls-5" d="M1499.44,685.11c5.32,2.85,11.36,4.82,17.08,6.72s12.49,4.37,18.73,4.37c6.71,0,10.07-6.44,16.13-8.31,6.46-2,13.24-1.5,19.59-4.07a51.14,51.14,0,0,0,6-2.81c3.53-11,6.33-26.11,5.32-45.55-.39-7.48-2-17-2.15-17.85a29.72,29.72,0,0,0-5.7-10.81,54.77,54.77,0,0,1,0,18.6c-.2,1.52-.48,3.11-.85,4.82s-.75,3.2-1.18,4.74c-.59,2.11-1.27,4.19-2,6.16a67.34,67.34,0,0,1-10.6,18.45,57.52,57.52,0,0,1-7.44,7.59c-9.54,9.33-24.74,12.83-39.68,9.14l-.07,0a34.16,34.16,0,0,1-10-5.07,35.57,35.57,0,0,1-12.73-17.86,19.51,19.51,0,0,1-1.56-5.22c-1.43-9,5.57-15,6.21-15.58,2.65-2.49,5-3.53,6.92-3.09a4,4,0,0,1,2.73,2.31,1.22,1.22,0,0,1,0,.8c-.41,1.23-.84,2.41-1.26,3.56-1.22,3.35-2.49,6.82-1.56,7.91.34.4,1.45,1,5.08.28,12.68-5.55,21.14-13.7,25.16-24.23a40.43,40.43,0,0,0,1.63-5.42,51,51,0,0,0,.23-19.71c-.29-1.68-.74-2.18-1-2.22-1.24-.22-4.69,3.77-7.39,8.53a1.18,1.18,0,0,1-.77.57,1.26,1.26,0,0,1-.94-.2c-7.55-5.43-16.16-11.08-18.71-12a89.32,89.32,0,0,1-8.66,14.8c4.25,8.85,12.25,15.8,19.23,22.48,1.09,1-.62,2.62-1.71,1.6-7-6.53-14.66-13.43-19-22.07a32.91,32.91,0,0,1-5,5.27l13.79,11.6a1.18,1.18,0,0,1-1.23,2c-.14-.06-10.3-4.45-18.64-3.16a27.49,27.49,0,0,1-.53,6.22c-.23,1.12-1.89.6-1.68-.5a25.54,25.54,0,0,0,.43-5.34,11.29,11.29,0,0,0-5.8,3.5,18.73,18.73,0,0,0-2.2,3.1,7.66,7.66,0,0,1,4.76,1,6.25,6.25,0,0,1,3,6.62c-.49,2.76-2.49,5.19-4.66,5.65-1.89.39-4.26-1-5.65-3.38a9.63,9.63,0,0,1-1.19-6.2c-.39.22-1,1.17-1.13.75-2.36-5.67-7.78-1.94-6.31,3,.61,2.05,4.64,10.41,5.37,12.66s1.42,4.38,2,6.44l.06.23a71.07,71.07,0,0,0,12.34,16.45A75,75,0,0,0,1499.44,685.11Z"/><path class="cls-5" d="M1490.18,567.41a13.2,13.2,0,0,1,2.58-1.76c-4.22-1.29-7.19,2.88-11.44,2.76-4.43-.11-8.86-.78-13.29-1a22.59,22.59,0,0,1-8.75-1.75,21.68,21.68,0,0,1-2.5-1.4c2.81,3.17,6.45,5.78,10.28,6.4,3.42.56,6.87.23,10.24,1.16s6.09,3,9.39,3.86c.77-.67,1.55-1.33,2.32-2A5.29,5.29,0,0,1,1490.18,567.41Z"/><path class="cls-5" d="M1517.83,528.19c.37-6.44-1.38-11.91-4.73-17.35-1.32-2.16-2.69-4.27-3.95-6.43,2.34,5.93,6.15,11.47,6.53,18,.56,9.54-3.84,18.43-4.38,27.87,0,.15-.71,2.71-1.66,1.77-3.24-3.23-4.82-7.46-6.31-11.69a44.61,44.61,0,0,0-3-7.37,41.51,41.51,0,0,0-4.49-6c-2.41-2.86-5-5.74-6.65-9.12a26.14,26.14,0,0,1-1.23-3,45.77,45.77,0,0,0,2.65,11,53,53,0,0,0,5.46,11.83,88.56,88.56,0,0,1,6.48,10.51c1,2.06,2.74,5.61,1.18,7.83-1.9,2.72-6,1.27-8.58.56a25.51,25.51,0,0,0-6.51-1.36c-2.34,0-4.79.37-7.12,0-5.45-.8-9.29-5.15-12.35-9.42a79.54,79.54,0,0,1-6-10.27,52.16,52.16,0,0,0,3.28,7.84c1.09,2.14,2.25,4.25,3.49,6.31s2.25,4.24,3.77,5.91c2.72,3,6.32,3.78,10.12,4.57a23.73,23.73,0,0,1,9.69,3.89,1,1,0,0,1,.33,1.09,35.06,35.06,0,0,1,6.78-2,51.34,51.34,0,0,1,10.61-1.32,18.89,18.89,0,0,1,5.17.75,16.55,16.55,0,0,1,2.06-5.26c.33-.57.67-1.13,1-1.68a21.67,21.67,0,0,1-3.46-13.07C1516.33,537.74,1517.55,533,1517.83,528.19Z"/><path class="cls-5" d="M1498.72,587.14c0-.17-.07-.2-.09-.22s-.15,0-.3,0c-.71.15-2.52,1.25-5.37,4.76a31.38,31.38,0,0,0,.49,4.82C1496.7,592.23,1498.88,588.64,1498.72,587.14Z"/><path class="cls-5" d="M1559.5,588.28l-.08,0a37.89,37.89,0,0,0-4.28-2.23c-2.7-1.17-8.19-3.09-13.15-1.94a35.15,35.15,0,0,1,2,3.15l.1.18a85.94,85.94,0,0,1,11.83,3.83,58.7,58.7,0,0,1,13.57,7.62A21.78,21.78,0,0,0,1559.5,588.28Z"/><path class="cls-5" d="M1490.83,594.49a51.83,51.83,0,0,0-6.93,13.14c2.7-2.86,5.4-5.93,7.74-8.83A29.19,29.19,0,0,1,1490.83,594.49Z"/><path class="cls-5" d="M1483.44,609.74a1.45,1.45,0,0,0,.22,1.15,1.73,1.73,0,0,0,1.68.45l-1.81-1.51Z"/><path class="cls-5" d="M1492.46,601.55c-2.52,3-5,5.72-6.46,7.28l1.64,1.37a30.49,30.49,0,0,0,5.76-6.18c-.13-.32-.27-.63-.4-.95C1492.82,602.57,1492.63,602.06,1492.46,601.55Z"/><path class="cls-5" d="M1467.32,631.67a12.91,12.91,0,0,1,3.36-1.85,19.22,19.22,0,0,1,3.35-5.31,13.91,13.91,0,0,1,7.45-4.38c-.54-6-2.43-11.83-2.45-17.92a41.36,41.36,0,0,1,1.9-13.06c.68-2.15,1.48-4.26,2.35-6.34.11-.3.23-.6.33-.91-5.54,5.87-10.94,11.85-15.16,18.82-6.41,10.58-9,21.81-6.39,34,.3,1.37.64,2.73,1,4.08A10.58,10.58,0,0,1,1467.32,631.67Z"/><path class="cls-5" d="M1487.41,613.09a7,7,0,0,1-1,.41,4.2,4.2,0,0,1-4.05-.65c.38,2.31.75,4.62.94,6.94a34.81,34.81,0,0,1,13.62,1.28Z"/><path class="cls-5" d="M1490.75,590.65c0-.14,0-.28,0-.43.47-4.32,2.67-11.93.91-13.09-4.84-2.32-6.48,6-7.11,7.57-.74,1.89-1.46,3.81-2,5.76a38.8,38.8,0,0,0-1.45,14c.09,1,.22,2,.36,3C1482.78,602.33,1487.43,594.86,1490.75,590.65Z"/><path class="cls-5" d="M1492.1,652.57A33.23,33.23,0,0,0,1504,669.31a31.68,31.68,0,0,0,9.22,4.71c14.16,3.48,28.51.2,37.47-8.58l.06-.05a56.34,56.34,0,0,0,7.16-7.31,64.86,64.86,0,0,0,10.23-17.8c.72-1.91,1.38-3.91,1.95-6,.42-1.49.81-3,1.14-4.6s.63-3.18.83-4.68a50,50,0,0,0-.89-21.66c-7.84-7.34-18.66-11.3-26.42-13.35a1.2,1.2,0,0,1-.37.51,1.36,1.36,0,0,1-2-.16,6.22,6.22,0,0,1-.48-1,67.35,67.35,0,0,0-6.9-1.27,1.17,1.17,0,0,1-1-.74,1.15,1.15,0,0,1,.2-1.19,12.66,12.66,0,0,1,3.57-2.92c-2.49-2.8-5.08-5.26-7.68-8-6.52-6.94-17.13-10.54-19-10.5-5.49.11-12.2,1-17,3.83-6.42,3.89,3.86,9.12,7.61,9.89.9.19.54,1.41-.24,1.47a14.87,14.87,0,0,1-8.11-1.58c.57,3.18,0,6.41-.35,9.63,2.93-3,5.23-4,6.84-2.95a2.53,2.53,0,0,1,1.11,1.92c.29,2.7-3.13,7.83-6.92,12.59.23.81.51,1.61.81,2.4,4-5.81,7.46-12.33,7.75-13.53a1.4,1.4,0,0,1,.89-1c.76-.3,1.8-.7,11.86,6,3.38,2.24,6.66,4.54,8.29,5.7,1.88-3.13,6-9.13,9.19-8.56,1.48.25,2.44,1.64,2.87,4.11a53.58,53.58,0,0,1-.24,20.64,41.34,41.34,0,0,1-1.74,5.76c-4.26,11.17-13.19,19.79-26.54,25.61a1,1,0,0,1-.25.07c-3.84.74-6.21.41-7.44-1-1.82-2.14-.52-5.72,1.14-10.25.35-1,.72-2,1.06-3a1.46,1.46,0,0,0-.88-.57c-.64-.14-2.12,0-4.79,2.53l-.07.06c-.06,0-6.65,5.55-5.4,13.41"/><path class="cls-5" d="M1556.08,583.84a38.07,38.07,0,0,1,4.52,2.35c6.57,3.3,10.53,9.17,12.63,15.89a33.16,33.16,0,0,1,9.16,15,.43.43,0,0,1,0,.11,183.13,183.13,0,0,1,2.19,18.19c1,18.26-1.32,32.73-4.47,43.61a22.34,22.34,0,0,0,6.94-8.21c6.62-13.38,19.91-20.74,30.1-31,8.51-8.6,15.92-18.87,19.23-30.65a50,50,0,0,0,1.84-17.8c-.53-6.36-2.43-12.47-4.48-18.48-4.14-12.11-9.76-24.87-19.68-33.39a35.93,35.93,0,0,0-18.11-8.48c-6.62-1-13.52-.24-20-2.27-3-1-6.13-2.41-9.31-2.63a17.15,17.15,0,0,0-8.54,1.73,24.43,24.43,0,0,1,2.84-.12,33.86,33.86,0,0,1,14.35,3.66c10.29,5.06,18.9,13.29,26.5,21.74,3.73,4.13,7.26,8.42,10.69,12.8,1.43,1.82,2.81,3.63,4.12,5.48a52.23,52.23,0,0,1,6.22,11.1c2.3,5.81,4.65,12.2,4.51,18.53-.12,5.74-1.52,11.36-1.45,17.11,0,1.9-3.11,1.78-2.92-.09.72-7,3.32-14,2.25-21.12a59.19,59.19,0,0,0-9.13-23.84c-.21-.3-.41-.6-.62-.89a142.58,142.58,0,0,0-10.43-12.58,170,170,0,0,0-12.41-12.63c-8-7.22-18-15-29.22-16-11.36-.91-21.67,5.62-29.59,13.17-3.44,3.27-6.69,6.69-9.82,10.24-2,2.24-5,5.5-6,8.81a26.19,26.19,0,0,1,6.17,3.43,95.61,95.61,0,0,1,11.56,10.09,66.69,66.69,0,0,1,4.75,5.42C1544.87,580.76,1550.28,581.32,1556.08,583.84Z"/><path class="cls-5" d="M1537.68,586.07c.78.13,1.73.3,2.82.52-.37-.54-.75-1.07-1.16-1.58A9.89,9.89,0,0,0,1537.68,586.07Z"/><path class="cls-5" d="M1534.18,579.36s6.19,4.81,8.2,11,3.85-2.2-2.4-9,34-10.29,46.73,20,1.15,67.82,1.15,67.82-4.63,12-16.89,14.6-70.12-.75-74.94-10.51-16.89-21.67-16.89-21.67-19.61-19.89-16.66-23.32,12.62-36.31,19.8-45c6.69-8.11,8.44-8.14,13.33-4.12s29.58.29,29.58.29Z"/><path class="cls-9" d="M1500.63,603c16.47,18.53,42.55,48.71,68.3,51.16a33.14,33.14,0,0,1-11-1c-23.1-6.24-44.92-30.37-57.28-50.15Z"/><path class="cls-9" d="M1465,607.33s13.3,45.66,35.66,56.9,26.12,7.11,26.12,7.11,0-3.85-.78-3.7-23.16,2.38-35-11.32-20.57-32.86-24.75-51.49Z"/><path class="cls-10" d="M1298,602.87l-.07,0c-1,.37-2,.76-3,1.2a54.33,54.33,0,0,0-13.73,9c-8.74,7.35-11,13.48-12.42,23.67-.19,1.36-.37,2.94-.56,4.61-.56,5.06-1.2,10.85-2.78,15.75,2.29-4.14,4.92-8.31,7.5-10.89,4.67-4.58,11.1-5,17.32-5.44a40.08,40.08,0,0,0,9.52-1.39,14.42,14.42,0,0,1-3.53-6.25c-1.29-4.74-.12-9.76,1.64-14-9.51,5-17.76,11.14-21,18.25a1.66,1.66,0,0,1-1.76,1,1.53,1.53,0,0,1-.45-.13,1.65,1.65,0,0,1-.83-2.2c4-8.93,14.86-16.28,26.56-21.92a42.64,42.64,0,0,1,3.34-4.88,47.42,47.42,0,0,0,5.53-9.27A41.94,41.94,0,0,0,1298,602.87Z"/><path class="cls-10" d="M1298.28,632.64a12.77,12.77,0,0,0,3.7,6c4.82-2,13.18-7.39,20.7-13.49.26-3.11.44-5.63.52-7.4a41.49,41.49,0,0,1,1.42-9.43,182,182,0,0,0-23.67,9.35C1298.78,622,1296.91,627.57,1298.28,632.64Z"/><path class="cls-10" d="M1305.4,610.61s-.59.73-1.4,1.91a197.5,197.5,0,0,1,22-8.19,33.2,33.2,0,0,1,2.1-4.11,98,98,0,0,0-16.28-.45A49.42,49.42,0,0,1,1305.4,610.61Z"/><path class="cls-10" d="M1324.91,623.29c7.15-6.08,13.07-12.63,13.66-17.25a4,4,0,0,0-.09-1.72c-2,.49-6.15,1.59-11.43,3.23a37.16,37.16,0,0,0-1.77,10.29C1325.22,619.24,1325.09,621.08,1324.91,623.29Z"/><path class="cls-10" d="M1328.71,603.51c2.74-.81,5.08-1.45,6.84-1.91-.35-.14-.72-.27-1.13-.4a22.11,22.11,0,0,0-3-.65l-1-.1A31.29,31.29,0,0,0,1328.71,603.51Z"/><path class="cls-10" d="M1249.8,658.14a1.23,1.23,0,0,0-.81,1c-.31,2.15.93,4.35,2.38,6.9a29.78,29.78,0,0,1,2.55,5.3,11.79,11.79,0,0,1,.64,4.73,18.42,18.42,0,0,0,2.82.1,13.84,13.84,0,0,0,1.25-5.6c0-.33,0-.67,0-1s0-.71-.07-1.06q-2.4-5.21-5-10.55a.18.18,0,0,1-.07-.05A5.49,5.49,0,0,0,1249.8,658.14Z"/><path class="cls-10" d="M1276.64,672.3l-3.78-.21a52.19,52.19,0,0,1-10.9-1.34c0,.17,0,.2,0,.24q1,2.16,1.91,4.28c1.79-.38,3.61-.83,5.49-1.3C1271.79,673.36,1274.22,672.75,1276.64,672.3Z"/><path class="cls-10" d="M1261.81,675.67l-.39-.88c-.1.34-.2.68-.31,1Z"/><path class="cls-10" d="M1258.53,679.44a22.86,22.86,0,0,1-6.23-.34,18.63,18.63,0,0,1-10-5.41l1.2-.33c4,1.1,5.43,1.25,7.75,2a8.51,8.51,0,0,0-.28-2.25c-4.39-1.7-13.51-5.26-17.25-6.78-2-.48-4-.87-6-1.16-15.09-2.15-28.41,1.6-37.48,10.55a40.66,40.66,0,0,0-4.5,5.35,55.87,55.87,0,0,0-3.6,6.23l0,.06c-6,11-7.92,22.83-7.86,34.62a147.21,147.21,0,0,0,49.26,21.18c4.15,1.1,8.23,2,12.16,2.73l2.88.66,5.14,1.18c8.85,2.07,16.24,4.15,23.55,7.54,3.69,1.65,7.32,3.39,10.77,5.18a155.77,155.77,0,0,1,20.52,12.67c2.55,1.77,4.91,3.44,6.8,4.82a10.4,10.4,0,0,0,6.87,2.22c.5-.93,1-1.86,1.46-2.8q-1.94-4.9-.54-7.18c.84-1.37,2.44-2,4.78-1.8,1.16-2.61,2.26-5.21,3.33-7.77-18.49-8.4-25.68-18.91-32.1-28.31-1.36-2-2.64-3.86-4-5.68-4-5.39-8.52-16.12-14.21-29.69-2.35-5.62-4.91-11.72-7.71-18.12-1.08.2-2.15.37-3.22.49C1259.5,679.36,1259,679.41,1258.53,679.44Z"/><path class="cls-10" d="M1188.45,777.81c1.92-.41,3.37-1.68,3.54-3.08.15-1.22-.73-2.35-2.48-3.2a9.11,9.11,0,0,0-7.27-.15c.64,1.87,1.4,3.94,2.31,6.11A7.42,7.42,0,0,0,1188.45,777.81Z"/><path class="cls-10" d="M1304.1,779.63c-1.88-1.37-4.22-3-6.79-4.81A153.93,153.93,0,0,0,1277,762.31c-3.41-1.77-7-3.5-10.67-5.13-7.16-3.33-14.44-5.37-23.16-7.42l-5.13-1.18-2.83-.65c-3.94-.71-8.08-1.63-12.24-2.74a148.81,148.81,0,0,1-48.74-20.7,189.49,189.49,0,0,0,2.93,26.06c0,.15,0,.29.07.43q5,2.91,10.42,5.53c1.37.66,2.1,1.51,2.15,2.51.09,2-2.51,3.61-5.8,5.62-1.19.73-2.29,1.42-3.24,2.08.23.81.49,1.69.79,2.66a11.06,11.06,0,0,1,8.83.28c2.57,1.25,3.89,3.19,3.63,5.32-.28,2.31-2.35,4.26-5.16,4.86h0a9.23,9.23,0,0,1-3.26,0c3.84,8.39,9.84,17.74,18.84,23.19a28.62,28.62,0,0,0,22.56,3.25l.31,0c2-.12,4-.2,5.85-.24,1.61,0,3,0,4.4,0,1.5,0,3,.09,4.41.2,6.69.42,13.32,2.63,19.72,4.78,2.49.83,5.07,1.69,7.61,2.43,6.56,1.49,14.45-1,21.65-6.73a60.08,60.08,0,0,0,4.75-4.17,83.79,83.79,0,0,0,15.33-20.3A12.68,12.68,0,0,1,1304.1,779.63Z"/><path class="cls-10" d="M1316.12,770.53a1.77,1.77,0,0,0-1.24.75c-.24.39-.53,1.36.06,3.49.7-1.44,1.37-2.88,2-4.33A4.52,4.52,0,0,0,1316.12,770.53Z"/><path class="cls-10" d="M1321.51,693.11a34.51,34.51,0,0,0-19.08-15.47,72.32,72.32,0,0,0-10.53-2c-.62-.08-1.23-.14-1.84-.19l-.71-.06c-.94-.08-1.86-.13-2.77-.16h-.11l-.1,0c-5-.82-10.69.6-16.16,2-1.63.41-3.28.82-4.93,1.18,2.74,6.27,5.24,12.24,7.55,17.74,5.63,13.45,10.07,24.07,14,29.25,1.39,1.86,2.68,3.76,4,5.76,6.26,9.15,13.26,19.39,31.19,27.56.14-.31.27-.63.4-1,.86-2.24,1.59-4.3,2.23-6.24a83.25,83.25,0,0,0,4.2-32.49c-.15-2.22-.38-4.34-.68-6.33a62.21,62.21,0,0,0-2-9l-.58-.64C1323.68,701,1322.38,697.59,1321.51,693.11Z"/><path class="cls-10" d="M1178.76,758.71c.41,1.8.87,3.61,1.35,5.36,0,.16.08.34.13.51.89-.6,1.83-1.17,2.72-1.71,1.69-1,4.84-3,4.8-3.74,0-.08-.19-.37-1-.75-3.12-1.5-6.14-3.1-9.07-4.75.06.35.12.69.19,1C1178.15,756,1178.44,757.32,1178.76,758.71Z"/><path class="cls-10" d="M1263.2,678.82l2.08-.43,57.14,79.36-2.22,5.3S1270.26,775.25,1263.2,678.82Z"/><path class="cls-10" d="M1174.29,718.23a117.89,117.89,0,0,0,.66,16.38c1,7.93,132.71,53.3,132.71,53.3s10.35-15,12.54-24.86S1174.29,718.23,1174.29,718.23Z"/><path class="cls-10" d="M1176.17,746.49s4.64,29.19,12.9,40.07,16-27.2,16-27.2Z"/><polygon class="cls-10" points="1261.41 674.79 1261.96 670.75 1263.9 675.27 1261.11 675.8 1261.41 674.79"/><path class="cls-10" d="M1295.69,620.41s15.69-9.16,32.88-13.33l.31,12.66s-18.67,17.75-31.24,20.25S1295.69,620.41,1295.69,620.41Z"/><path class="cls-10" d="M1305.62,600.59s13.17-2.77,25.85,0l.65,2s-25,7.59-34.31,13S1305.62,600.59,1305.62,600.59Z"/><path class="cls-7" d="M1664.87,609.46,1665,605c-2.5.83-5.57,1.6-6.8,2.25-5.2,2.75-8.61,6.94-10.62,13.79l-.45,1.51c-.46,1.6-.91,3.07-1.36,4.52a115.91,115.91,0,0,1-9.38,23.06c-1.07,1.82-2.11,3.44-3.17,4.92l-.63.8c-.81,1-1.63,2.07-2.47,3a46.32,46.32,0,0,1-3.4,3.59c-1.17,1-2.41,2.07-3.69,3a47.59,47.59,0,0,1-21.45,9.24c3.86-5.52,6.55-12.87,8.09-17.92.95-3.13,1.79-6.4,2.49-9.67l.58-.24c.64-.25,1.28-.52,1.92-.79,1-.42,1.94-.85,2.89-1.31a62.9,62.9,0,0,0,13-8.44.41.41,0,0,0,.1-.09,31,31,0,0,0,3-3.77,32,32,0,0,0,4.92-13.38,37.45,37.45,0,0,0,.32-5.52,36.86,36.86,0,0,0-1.23-11.46,35.65,35.65,0,0,0-1.89-5.24c-6.89-14.92-22.14-21.06-34.41-26-1.45-.79-2.93-1.64-4.4-2.55s-2.72-1.69-4.24-2.7c-12.14-10.61-29.72-22.76-44.63-20.54-7,1.05-12.84,5.2-17.28,12.34a25.49,25.49,0,0,0-3.22,16.19,57.93,57.93,0,0,0,1.4,11.23c.32,1.61.65,3.22,1,4.79a.29.29,0,0,0,0,.09,96.64,96.64,0,0,1,2.73,11.34c.31,1.74.6,3.57.86,5.45l0,.21c.46,3,.74,6.18,1,9.28.08,1.11.16,2.21.23,3.31a131.64,131.64,0,0,0,1.62,15.1c.29,1.59.64,3.13,1,4.57a41.67,41.67,0,0,0,11.16,20.13c.7.72,1.42,1.42,2.17,2.1,1,.94,2.16,1.87,3.3,2.74.53.42,1.07.82,1.61,1.22l.54.38a57.89,57.89,0,0,0,14.43,7.39c.57.21,1.15.4,1.74.59a81.81,81.81,0,0,0,12.83,3c1.26.22,2.47.38,3.66.52.8.09,1.59.16,2.39.22a50.08,50.08,0,0,0,5.34,0,11.58,11.58,0,0,1-4.08,2.56,4.28,4.28,0,0,0-1.59.9,4.84,4.84,0,0,0-1,1.16c-1,1.62-1.06,3.83-.31,6.56.14.51,14.23,50.44,41.41,58.91,6.78,2.11,13.75,1.41,20.81-2.09a75.6,75.6,0,0,1,4.14,38.3,92,92,0,0,1-1.9,9.67c-12.49-10.67-28.39-24.72-32.17-30.91-.92-1.51-2-3.47-3.28-5.74-.91-1.62-1.93-3.45-3.09-5.47a272.41,272.41,0,0,0-37.4-50.77l-.06-.06a110.06,110.06,0,0,0-11.91-9.61c-.58-.41-1.16-.8-1.75-1.18q-2.48-1.64-4.94-3c-.72-.4-1.44-.78-2.16-1.15-1.35-.69-2.71-1.34-4.07-1.93a51,51,0,0,0-27.9-4c-14.38,2.06-26,9.9-36.69,17.76-10.31,7.6-16.83,13.8-20.73,20.31a33.81,33.81,0,0,0-2.09,4.11,32.5,32.5,0,0,0-1.4,4,41.32,41.32,0,0,0-1.41,9.42c-.08,1.78-.27,4.3-.52,7.4-.1,1.28-.22,2.65-.34,4.12-.47,5.7-.93,11.5-1.31,17.21a81.51,81.51,0,0,1-11.5-3.43,22.1,22.1,0,0,1-7.55-4.4,12.6,12.6,0,0,1-3.7-6c-1.37-5.06.5-10.67,2.66-15a45.76,45.76,0,0,1,3.06-5.15c.81-1.17,1.37-1.88,1.4-1.9a50.21,50.21,0,0,0,6.43-10.84,84.17,84.17,0,0,0,4.27-11.58c2.77-9.58,4.77-22.33,3.94-38.43-.37-7-1.92-15.94-1.93-16s0-.06,0-.1a29.38,29.38,0,0,0-8.07-13.18c-1.86-5.92-5.35-11.09-11.13-14a33.56,33.56,0,0,0-4-2.07c-5.1-2.22-9.87-2.72-13.71-1.56a12,12,0,0,0-2.38,1,11.3,11.3,0,0,0-3.16,2.57,1.07,1.07,0,0,0-.17,1.06,1,1,0,0,0,.85.65,61.38,61.38,0,0,1,6.08,1.11c.78.18,1.63.39,2.52.62,6.84,1.81,16.37,5.3,23.28,11.77a44.14,44.14,0,0,1,.79,19.09c-.18,1.32-.42,2.67-.73,4.12s-.64,2.74-1,4.06c-.5,1.8-1.08,3.57-1.72,5.25a57.3,57.3,0,0,1-9,15.68,49.36,49.36,0,0,1-6.31,6.44l-.06,0c-7.89,7.73-20.54,10.63-33,7.56a27.8,27.8,0,0,1-8.13-4.15,29.25,29.25,0,0,1-10.49-14.75l-.06-.14a14.89,14.89,0,0,1-1.22-4.1c-1.11-6.93,4.7-11.77,4.76-11.82l.06,0c2.35-2.22,3.65-2.35,4.22-2.24a1.36,1.36,0,0,1,.78.51c-.31.9-.63,1.78-.94,2.63-1.46,4-2.61,7.15-1,9,1.09,1.28,3.18,1.58,6.56.93l.22-.07c11.76-5.13,19.63-12.72,23.39-22.56a38.3,38.3,0,0,0,1.53-5.08,47.06,47.06,0,0,0,.21-18.19c-.37-2.18-1.22-3.4-2.53-3.63-2.84-.49-6.43,4.79-8.1,7.55-1.43-1-4.32-3.05-7.3-5-8.86-5.87-9.78-5.52-10.45-5.26a1.27,1.27,0,0,0-.79.92c-.25,1.06-3.28,6.81-6.83,11.92-.45.65-.9,1.28-1.36,1.89a26.73,26.73,0,0,1-5.08,5.45l-1.44-1.21c1.29-1.37,3.47-3.75,5.69-6.42.5-.59,1-1.2,1.48-1.82,3.34-4.2,6.35-8.71,6.1-11.1a2.28,2.28,0,0,0-1-1.69c-1.43-1-3.45-.09-6,2.6-.61.63-1.24,1.36-1.9,2.18l-.18.23c-2.93,3.71-7,10.29-8.17,14.9-.48,2-.43,3.58.49,4.44a2.75,2.75,0,0,0,.26.22,3.69,3.69,0,0,0,3.57.58,5.7,5.7,0,0,0,.9-.37l8.37,7a30.62,30.62,0,0,0-12-1.13,14.19,14.19,0,0,0-1.58.3,12.17,12.17,0,0,0-6.57,3.86,16.67,16.67,0,0,0-3,4.68,11.19,11.19,0,0,0-3,1.63,9.3,9.3,0,0,0-3.75,6.3,9.51,9.51,0,0,0,.34,3.9c.55,1.83,1.21,3.89,1.86,5.88s1.24,3.84,1.79,5.64c1.4,4.68,1.12,8-.86,9.81-4.38,4.08-16.53.69-20.84-.95a1,1,0,0,0-1.33.57,57.07,57.07,0,0,1-3.45,6.91l-.24-.16c-2.74-1.76-5.92-3.69-9.42-5.66-16.65-9.33-40.72-19.27-61-13.7-3.11.85-4.51,1.68-4.84,2.87s.55,2.06,1.18,2.71a4.19,4.19,0,0,1,.69.84c-.1.18-.82,1-5.48,2.13a11,11,0,0,0-7,5.44c-8.81,15,1.84,54.67,2.3,56.35a1,1,0,0,0,1.2.75,190.91,190.91,0,0,0,37-12.3,148.9,148.9,0,0,0,15.86-8.31c11.38-6.88,22.77-16.1,30.34-28,22.93,15.12,43.25,35.38,53.36,53.29,3.25,5.74,6.25,11.49,9.05,17.16q2.64,5.34,5,10.55c1,2.12,1.94,4.21,2.86,6.29.13.29.26.59.4.88.46,1.06.93,2.1,1.38,3.14,2.81,6.41,5.37,12.51,7.72,18.12,5.68,13.58,10.17,24.3,14.21,29.69,1.36,1.83,2.64,3.7,4,5.69,6.42,9.4,13.61,19.91,32.1,28.31,2.2,1,4.55,2,7.09,2.91a550.36,550.36,0,0,1,51.2,22.26c-3.59.87-10.27,2.4-17.11,3.51-2.62.42-4.92.73-6.94.94-6.77-5-13.27-6.69-15.79-5.22-.54.31-2.2,1.57-.73,4.48s6.64,3.78,15.88,2.89a45,45,0,0,1,10.12,10.88,109.73,109.73,0,0,1,6.87,11.21c-5.36-1.06-35.31-7.49-44.83-19.88a110.3,110.3,0,0,1-9.56-14.12c2.78-1.86,4.71-4.93,4.72-7.69a4.38,4.38,0,0,0-2.4-4.1,1,1,0,0,0-.28-.09,11.86,11.86,0,0,0-1.58-.21c-2.33-.17-3.94.43-4.78,1.8s-.74,3.91.55,7.17c.28.71.6,1.46,1,2.25a8.45,8.45,0,0,1-2.46.56,10.33,10.33,0,0,1-6.86-2.23c-1.89-1.37-4.25-3-6.81-4.81a154.72,154.72,0,0,0-20.52-12.67c-3.44-1.79-7.07-3.53-10.77-5.18-7.3-3.39-14.69-5.47-23.54-7.55l-5.14-1.18-2.88-.65c-3.93-.72-8-1.63-12.17-2.73a147.38,147.38,0,0,1-49.26-21.18,185.41,185.41,0,0,1-47.4-45.85,98.4,98.4,0,0,1-8.59-13.19,31.12,31.12,0,0,1-1.62-3.51c.75-.69,2.33-2.16,4.53-4.14,2.73-2.44,6.41-5.68,10.68-9.29l.66-.13q6.4-1.35,12-2.87c31.28-8.44,44-20.13,44.35-26.53.15-2.34-1.19-4.12-3.68-4.88a.83.83,0,0,0-.35-.05c-7.76.36-18.86,6.38-30,14-8.53,5.86-17.06,12.66-24,18.55q-3.21.66-6.65,1.28l-16,2.85-8.42,1.5-5,.89a1,1,0,0,0-.8,1.35c0,.07,1.07,3.28,3.32,8.58A211.27,211.27,0,0,0,1254.25,810c12.12,18.67,32.63,43.63,63.35,61q4.39,2.49,9.07,4.76c.79.38,1,.67,1,.74,0,.79-3.12,2.71-4.81,3.75-.89.54-1.82,1.11-2.72,1.71-3.26,2.18-6,4.76-4.22,7.75l0,.08a56.28,56.28,0,0,0-5.44,4.61,18.4,18.4,0,0,1-2.35,2,1,1,0,0,0-.58.86,1,1,0,0,0,.46.93c6.65,4.44,14.67,12.08,15.19,23.28v.06a33.62,33.62,0,0,1,.14,4.16,35.4,35.4,0,0,1-2.43,12.1c-4.25,8.91-9.63,15-16.43,18.63a31.92,31.92,0,0,1-4,1.7c-14.71,4.79-31.63,1.87-43.1-7.43a39.25,39.25,0,0,1-3.4-3.31c-9-9.89-13.55-24.94-11.22-37.45,1.92-10.31,7.6-15.37,12-17.8,6-3.27,12.2-3.31,14.74-2.29,1.43.57,3.16,1.53,3.3,2.86.19,1.74-2.25,3.82-3.15,4.43a25.21,25.21,0,0,0-9.4,11.13,11.33,11.33,0,0,0,.54,10.36c4.25,7.7,16.46,12.86,26,14.4a21.18,21.18,0,0,0,17.75-5.38,17.85,17.85,0,0,0,3.1-3.73,8.39,8.39,0,0,0,1.28-3.61,3.06,3.06,0,0,0-1.36-3c-1.87-1.16-5.18-.38-9.82,2.31l-.09,0a.91.91,0,0,1-.06-.16c7.4-7.26,5.92-22.67,5.85-23.38a1,1,0,0,0-.5-.78,1.46,1.46,0,0,0-2,.5c-2,2.38-6.11,16.63-5.6,22.85-.26.21-.54.42-.83.61-7.4,4.92-20.28-4.7-23.22-7l12.25-26.11c2.79,2,9.42,5.44,14.92,5.56a8.2,8.2,0,0,0,6.25-2.15c2.08-2.09,2.77-4.13,2-6-2.91-7.61-29.26-9.32-32.46-9.5a117.15,117.15,0,0,0-13-.9,9.46,9.46,0,0,0-2.67-6.87c-1.71-1.53-4.92-2.74-10.56.22a31,31,0,0,0-3.55,2.21l-.13.11a25.4,25.4,0,0,1-3.63,3l-.07.05a27.22,27.22,0,0,1-6.19,2.36,29,29,0,0,1-3.91.4h-.11a11.18,11.18,0,0,1-10.85-4.61,13.85,13.85,0,0,1-1.47-14,.37.37,0,0,0,0-.11,27.72,27.72,0,0,1,1.59-3.71c1-1.91,2.1-3.8,3.21-5.63,2.32-3.85,4.71-7.82,5.7-12.31a16.78,16.78,0,0,0,6.13-3.57,15.23,15.23,0,0,0,2.81-3.39,13.69,13.69,0,0,0,1.65-4.12,22.26,22.26,0,0,0-2.47-17.9,21.32,21.32,0,0,0-10.3-8,22.06,22.06,0,0,0-9.76-1.25,19.61,19.61,0,0,0-16.43,12l0,.07-1.9,5.6,0,.1a36.34,36.34,0,0,1-2,6.35c-2.4,5.54-23,31.32-26.38,35.9h3c5-6,21.78-28,24.46-33.29a36.79,36.79,0,0,0,3-8.44l1.88-5.52A17.32,17.32,0,0,1,1217,798.07a19.91,19.91,0,0,1,8.54,1,19.27,19.27,0,0,1,9.59,7.36A19.55,19.55,0,0,1,1238,819.3a18.9,18.9,0,0,1-.68,3.33.29.29,0,0,1,0,.09,11.27,11.27,0,0,1-1.4,3.51,13.44,13.44,0,0,1-2.44,2.94,14.3,14.3,0,0,1-4.39,2.76,12.44,12.44,0,0,0-6.27-11.35l-.18-.08c-4.62-1.49-8.25,1.73-9.79,5.58,0,0,0,.08,0,.12a6.33,6.33,0,0,0,1.22,5.52,9,9,0,0,0,4.79,3.13l.09,0a20.91,20.91,0,0,0,7.57,0c-1,3.73-3.06,7.11-5.2,10.66-1.12,1.86-2.29,3.79-3.29,5.76a33.52,33.52,0,0,0-1.68,3.93,15.94,15.94,0,0,0,1.7,16,13.2,13.2,0,0,0,12.76,5.45,32.23,32.23,0,0,0,4.12-.43,28.43,28.43,0,0,0,7.12-2.76,27.78,27.78,0,0,0,3.84-3.19,28.24,28.24,0,0,1,3.24-2c2.52-1.33,6-2.49,8.21-.51a7.35,7.35,0,0,1,2,5.32,38.06,38.06,0,0,0-9.19,1.08,4.61,4.61,0,0,0-3.72,4,6.09,6.09,0,0,0,2.34,5.37,7.91,7.91,0,0,0,4.51,1.73c2.94,0,5.57-2.17,7-5.93a16.2,16.2,0,0,0,1-4.21,118,118,0,0,1,12.85.89h.08c10.89.61,28.84,3.36,30.68,8.17.16.41.63,1.64-1.56,3.84a6.25,6.25,0,0,1-4.73,1.55c-5.89-.13-13.51-4.67-14.58-5.83a1,1,0,0,0-.92-.33,1.05,1.05,0,0,0-.79.58l-13.15,28.06a1,1,0,0,0,.26,1.23c.6.51,13.22,11.18,22.8,9.16a10,10,0,0,0,3.53-1.47l.24-.16a1.46,1.46,0,0,0,.17.24,2,2,0,0,0,2.67.3c5.63-3.27,7.38-2.52,7.68-2.34.11.07.43.27.38,1.07a6.47,6.47,0,0,1-1,2.68,15,15,0,0,1-2.72,3.27,19.1,19.1,0,0,1-16,4.86c-9.05-1.46-20.58-6.26-24.5-13.36a9.31,9.31,0,0,1-.45-8.54,23.58,23.58,0,0,1,8.57-10.17l0,0c.46-.31,4.44-3.07,4.09-6.38-.2-1.9-1.75-3.44-4.6-4.58-3.4-1.37-10.35-1-16.51,2.4-4.81,2.65-11,8.13-13.06,19.24-2.45,13.12,2.27,28.88,11.72,39.23a42.56,42.56,0,0,0,3.61,3.5c10.76,8.73,26,12.1,40.16,9.13a47.17,47.17,0,0,0,4.93-1.32,36.11,36.11,0,0,0,4.31-1.82c7.13-3.8,13-10.4,17.36-19.62l0-.07a37.39,37.39,0,0,0,2.59-12.84,37.51,37.51,0,0,0-.15-4.39c-.43-9.15-5.57-17.45-14.9-24.05.43-.38.93-.84,1.52-1.39a56,56,0,0,1,5.19-4.4c2.93,4,6.05,5.37,8.39,5.74a9.11,9.11,0,0,0,3.27,0h0c2.81-.6,4.89-2.55,5.17-4.85.26-2.14-1.07-4.08-3.63-5.32a11,11,0,0,0-8.83-.28,20.08,20.08,0,0,0-3.81,1.87c-.81-1.36.6-2.85,3-4.54,1-.65,2-1.34,3.23-2.07,3.3-2,5.9-3.6,5.8-5.62,0-1-.77-1.85-2.14-2.51-3.61-1.74-7.07-3.6-10.42-5.53-29.53-17.1-49.34-41.27-61.13-59.42a207.35,207.35,0,0,1-17.63-33.35c-1.08-2.63-1.82-4.61-2.23-5.75l5.95-1.06,8.86-1.58,13.43-2.4c1-.18,2.06-.37,3.06-.56-3.34,2.87-6.2,5.41-8.37,7.38-2.56,2.31-4.17,3.83-4.51,4.15a1,1,0,0,0-.28,1,25.25,25.25,0,0,0,2,4.49,101.16,101.16,0,0,0,8.76,13.47,187,187,0,0,0,49.11,47.11,149.18,149.18,0,0,0,48.73,20.7c4.17,1.1,8.3,2,12.24,2.74l2.84.65,5.12,1.18c8.73,2,16,4.09,23.16,7.41,3.68,1.64,7.27,3.36,10.67,5.13a153,153,0,0,1,20.28,12.52c2.56,1.78,4.91,3.44,6.78,4.8a12.76,12.76,0,0,0,7,2.65,10.62,10.62,0,0,0,4.55-.81,114.84,114.84,0,0,0,9.74,14.41c10.56,13.73,43.22,20.13,46.68,20.77,1.07.75,1.75.28,1.94.11.81-.73.39-1.94-.73-4.06-1.2-2.28-3.4-5.84-6.55-10.57a48.26,48.26,0,0,0-8.9-10.05c1.55-.2,3.21-.44,5-.72,10.12-1.64,19.91-4.21,20-4.23a1,1,0,0,0,.77-.89,1,1,0,0,0-.56-1,556.64,556.64,0,0,0-53.92-23.61c-2.51-.93-4.84-1.89-7-2.88-17.93-8.18-24.94-18.41-31.19-27.56-1.37-2-2.66-3.9-4-5.76-3.88-5.19-8.33-15.81-14-29.25-2.3-5.5-4.81-11.47-7.55-17.74l-1.37-3.12c-.63-1.42-1.27-2.84-1.92-4.28-4.55-10-9.71-20.63-15.7-31.23-10.27-18.18-30.87-38.73-54.09-54a58.88,58.88,0,0,0,3.24-6.33c3.64,1.26,16.62,5.25,22.06.2,2.57-2.4,3.07-6.35,1.48-11.74l0-.2c-.55-1.82-1.19-3.78-1.8-5.68s-1.31-4-1.85-5.83a7.14,7.14,0,0,1,2.68-8,8.3,8.3,0,0,1,1-.67,8.42,8.42,0,0,0,1,5.47c1.22,2.07,3.32,3.32,5,3,1.91-.4,3.68-2.54,4.1-5a5.47,5.47,0,0,0-2.64-5.83,6.75,6.75,0,0,0-4.19-.85,16.66,16.66,0,0,1,1.94-2.73,10,10,0,0,1,5.11-3.08,13.23,13.23,0,0,1,1.57-.33c7.34-1.14,16.3,2.73,16.42,2.78a1,1,0,0,0,1.09-1.74l-12.16-10.23a28,28,0,0,0,4.45-4.64c.45-.58.9-1.17,1.34-1.77a79.45,79.45,0,0,0,7.64-13c2.24.78,9.83,5.76,16.48,10.55a1.16,1.16,0,0,0,.83.17,1,1,0,0,0,.68-.5c2.38-4.2,5.42-7.71,6.51-7.52.2,0,.59.48.85,1.95a45,45,0,0,1-.2,17.38,36.17,36.17,0,0,1-1.44,4.78c-3.54,9.27-11,16.45-22.17,21.35-3.2.59-4.18.1-4.47-.25-.82-1,.29-4,1.37-7,.37-1,.75-2.06,1.11-3.14a1.12,1.12,0,0,0,0-.7,3.52,3.52,0,0,0-2.41-2c-1.71-.38-3.76.53-6.09,2.72-.57.47-6.74,5.81-5.48,13.73a17.22,17.22,0,0,0,1.38,4.61,31.39,31.39,0,0,0,11.21,15.73,30.3,30.3,0,0,0,8.77,4.47h.07c13.16,3.26,26.55.17,35-8.05a50,50,0,0,0,6.54-6.69,59,59,0,0,0,9.35-16.26c.66-1.73,1.26-3.56,1.78-5.42.38-1.36.73-2.76,1-4.18s.57-2.91.75-4.25a48,48,0,0,0,0-16.39,26.09,26.09,0,0,1,5,9.53,158,158,0,0,1,1.89,15.73c.89,17.13-1.57,30.47-4.68,40.14a80.43,80.43,0,0,1-3.94,10,48,48,0,0,1-5.54,9.28,41.23,41.23,0,0,0-3.33,4.88,40,40,0,0,0-2.55,5c-1.77,4.21-2.93,9.23-1.65,14a14.65,14.65,0,0,0,3.53,6.24,23.25,23.25,0,0,0,9,5.58,84.17,84.17,0,0,0,12.08,3.58c-1.11,17.44-1.46,33.93.61,44.54.88,4.48,2.18,7.92,4,9.92l.58.64c1.94,2.11,4.62,5.2,7.69,8.72,6.92,8,16.39,18.86,24.74,27.18,13.51,13.47,17.72,13.9,19.88,12.76,4.63-2.44,7.85-6.89,8.22-11.35a9,9,0,0,0-3.67-8.2,50.06,50.06,0,0,0-5.69-3.63c-4.23-2.44-9.5-5.48-18.87-14.8l-.45-.45C1485,818.38,1485,818.38,1480.77,801l0-.2a277.83,277.83,0,0,1-5.7-30.25c.17-3,.24-4.19-.57-5s-1.72-.75-3.39-.73a40.61,40.61,0,0,1-8.09-.61c.43-6.55.93-12.61,1.33-17.44.19-2.27.36-4.33.5-6.14.17-2.21.3-4.06.36-5.46a37.84,37.84,0,0,1,1.77-10.28,32.07,32.07,0,0,1,1.66-4,32.77,32.77,0,0,1,1.74-3.07c3.8-6,10-11.78,19.62-18.85,13.73-10.11,34.75-25.58,62.84-13.35q2.46,1.08,5,2.44c.52.28,1,.57,1.57.87,1.13.64,2.26,1.33,3.4,2.06l1.58,1,.17.13c.5.34,1,.68,1.51,1a106.61,106.61,0,0,1,10.69,8.7A270.71,270.71,0,0,1,1611,747.47c2.37,4,4.29,7.4,5.86,10.21,1.28,2.28,2.39,4.26,3.33,5.8,4,6.62,20.37,21,33.35,32.06-.63,2.26-1.32,4.43-2,6.48-.3.86-.61,1.71-.93,2.54-3.18-1.9-6.6-3.59-10.13-5.35-14.45-7.16-32.44-16.08-46.79-46.12-10.1-21.17-19.6-34.79-29.89-42.88-9-7.09-19-10.42-33.5-11.14-25.52-1.25-32,8.69-41.7,23.73l-.22.34c-9,13.85-12.25,22.26-10.66,27.29a6.7,6.7,0,0,0,4.16,4.3c2,.82,4.71.86,7.81.91,7.51.12,16.86.27,24.1,10.79a34.48,34.48,0,0,1,2.22,3.7,23.9,23.9,0,0,0,1.16,3.86c-.33.54-.64,1.1-.92,1.67a19.63,19.63,0,0,0-2,7.51,24.4,24.4,0,0,0,1.21,8.85c7.81,24.45,19.54,26.08,33.14,28a98,98,0,0,1,11.53,2.08c7.79,2,15.45,2,22.21,2.06,9.34,0,16.72,0,20.34,5.17,5,7.13,13.67,12.74,20.54,13.35a10.42,10.42,0,0,0,8.53-2.75c.87-.86,1.72-1.7,2.57-2.52l.07-.08a121.63,121.63,0,0,0,17.21-29.63,40.87,40.87,0,0,1,4.55,3.41c6.68,10,8.57,21.12,5.31,31.29a35.12,35.12,0,0,1-21,21.91c-15.47,5.83-38.11,3.23-58.09.94-4.8-.55-9.34-1.07-13.54-1.44-16.71-1.47-22.14,4-23.71,6.48a6.14,6.14,0,0,0-.6,6.29c2.35,4.1,25.82,12.82,38.91,12.41,32.19-1.53,55.81-5.55,72.19-12.31,13.43-5.54,22.1-13.06,26.52-23,7.72-17.36-3.76-39.79-15-49.31-1-.88-2.23-1.88-3.55-3-2.19-1.85-4.82-4.06-7.68-6.5a94.74,94.74,0,0,0,2-9.53,83.26,83.26,0,0,0,1-17.45,74.48,74.48,0,0,0-5.12-23.48,50.41,50.41,0,0,0,7.54-5.29c.74-.62,1.44-1.24,2.09-1.85,5-4.66,7.51-9,8.52-12.88a17.23,17.23,0,0,0-3.36-15.17c-7.32-9.33-22.67-13.61-29.86-8.33a8.93,8.93,0,0,0-3.17,4.29c-.9,2.55-1,6.18.87,11.31a59.13,59.13,0,0,0,7.1,13.11,78.49,78.49,0,0,1,7.62,13.86c-6.63,3.31-13.13,4-19.41,2.05-21.67-6.76-36.24-43.78-40-57.48-.59-2.11-.56-3.81.07-4.91a2.19,2.19,0,0,1,.34-.47,2.49,2.49,0,0,1,1-.69l.09,0a15.44,15.44,0,0,0,6.58-4.8c.51-.06,1-.12,1.53-.2a49.57,49.57,0,0,0,23-9.72c1.32-1,2.61-2,3.85-3.16a48.71,48.71,0,0,0,3.56-3.76c.92-1.06,1.83-2.19,2.73-3.36.16-.2.32-.39.47-.6,1.12-1.55,2.19-3.22,3.31-5.13a117.74,117.74,0,0,0,9.56-23.49c.45-1.43.9-2.92,1.37-4.53l.44-1.5A21.12,21.12,0,0,1,1659,609c2-1.16,4.34-1.17,6-2Zm2.26-9.65-232.63,32.88a74.66,74.66,0,0,0-10.42-3.37c-1.15-.28-2.2-.52-3.15-.71s-1.79-.34-2.48-.46a9.69,9.69,0,0,1,3.8-1.77c4.37-1,9.2.68,11.58,1.72a30.17,30.17,0,0,1,3.78,2l.07,0a19.18,19.18,0,0,1,8.78,9.3A52.18,52.18,0,0,0,1434.63,628.23ZM1371,645.56c-.18-.16-.24-.51-.2-1a.6.6,0,0,0,.08.08l1.59,1.34A1.52,1.52,0,0,1,1371,645.56Zm.21-2.87a45.83,45.83,0,0,1,6.1-11.58c.56-.78,1.13-1.55,1.74-2.31a2.09,2.09,0,0,0,.14-.17c2.51-3.09,4.11-4.07,4.74-4.2a.36.36,0,0,1,.26,0s.06,0,.07.19c.14,1.33-1.77,4.5-4.63,8.24-.51.67-1,1.35-1.6,2C1376,637.46,1373.57,640.17,1371.19,642.69ZM1302.93,729A143.12,143.12,0,0,1,1284,739.3a191.34,191.34,0,0,1-35.64,12c-1.58-6.18-9.92-40.79-2.26-53.8a8.87,8.87,0,0,1,5.65-4.48c5.32-1.31,6.64-2.38,7-3.58s-.55-2.16-1.2-2.84a4.68,4.68,0,0,1-.65-.75c.15-.17.78-.68,3.36-1.39,15.32-4.2,36.64.74,59.54,13.58q4.56,2.57,9.2,5.53l.28.18C1322.62,714.2,1312.93,722.55,1302.93,729Zm177.76,176.88c-.47-.92-.5-1.51-.09-1.75a1.67,1.67,0,0,1,.52-.18c1.81-.38,6.07.79,10.92,3.9C1483.17,908.44,1481.14,906.81,1480.69,905.91ZM1292.11,747.34c10.66-7.67,21.61-14.27,29.66-16a20.17,20.17,0,0,1,2.84-.4,2.59,2.59,0,0,1,2.05,2.72c-.3,4.85-11.05,15.77-40.77,24.1q-5,1.41-10.74,2.7C1280.35,756.21,1286.18,751.61,1292.11,747.34Zm5.36,169a70,70,0,0,1,4.06-17.14c.06,4.24-.38,12.24-4.07,17.29A.76.76,0,0,1,1297.47,916.35Zm-78.16-83.52a6.88,6.88,0,0,1-3.63-2.37,4.27,4.27,0,0,1-.87-3.67c1.09-2.69,3.6-5.41,7.1-4.34a10.34,10.34,0,0,1,5,10.18A18.77,18.77,0,0,1,1219.31,832.83Zm39,45.8c-1.15,2.92-3,4.64-5.07,4.61a5.93,5.93,0,0,1-3.36-1.35.42.42,0,0,0-.14-.09,4.21,4.21,0,0,1-1.32-3.37c.11-1.12.84-1.86,2.22-2.25.39-.11.79-.21,1.22-.3a40.24,40.24,0,0,1,7.3-.69A14.68,14.68,0,0,1,1258.33,878.63Zm63.8,10.1a9.07,9.07,0,0,1,7.27.14c1.74.85,2.62,2,2.48,3.21-.18,1.4-1.63,2.67-3.54,3.07a7.31,7.31,0,0,1-3.9-.32,12.06,12.06,0,0,1-5.61-4.49A17.64,17.64,0,0,1,1322.13,888.73Zm132.69,3.39c-.59-2.13-.3-3.1-.06-3.49a1.84,1.84,0,0,1,1.24-.76,5.83,5.83,0,0,1,.85-.08,9.82,9.82,0,0,1,2,.17,2.31,2.31,0,0,1,1.15,2.17,8,8,0,0,1-3.6,5.84A23.72,23.72,0,0,1,1454.82,892.12Zm-89.59-227.86a3.43,3.43,0,0,1,1.69,3.71c-.31,1.73-1.53,3.1-2.49,3.3-.59.12-1.88-.5-2.76-2a6.62,6.62,0,0,1-.5-5.36A5.4,5.4,0,0,1,1365.23,664.26Zm105.86,102.65a8.71,8.71,0,0,1,1.85.07,13.55,13.55,0,0,1,0,3.58,1,1,0,0,0,0,.17,275.33,275.33,0,0,0,5.75,30.6l0,.2c4.28,17.74,4.44,18,17.66,31.19l.45.45c9.55,9.52,15,12.63,19.3,15.13a49.42,49.42,0,0,1,5.47,3.48,7,7,0,0,1,2.85,6.38c-.31,3.77-3.1,7.57-7.12,9.68-1,.52-4.66.35-17.44-12.39-8.3-8.27-17.75-19.14-24.65-27.07-3.39-3.91-6.33-7.28-8.31-9.41-5.89-6.33-5.45-31.6-4.13-52.67A42.16,42.16,0,0,0,1471.09,766.91Zm161.73,69c-.84.82-1.69,1.65-2.54,2.5a8.31,8.31,0,0,1-6.89,2.16c-6.32-.56-14.31-5.8-19-12.48-4.24-6-12.49-6-22-6.05-6.63,0-14.15,0-21.69-2a101.91,101.91,0,0,0-11.77-2.13c-13.43-1.85-24-3.31-31.44-26.52a22.29,22.29,0,0,1-1.12-8.1,17.72,17.72,0,0,1,1.77-6.72,2.26,2.26,0,0,1,.11-.22l.09.18a29.36,29.36,0,0,0,4,5.84c2.41,4.55,7.22,7.58,14.29,9h.12c7.64.65,16.72-3.13,18.67-10.6,1.86-8.31-2.62-16.12-10.44-18.17-7.77-1.73-15.65.23-22.84,5.7a23.57,23.57,0,0,0-3.29,3.34l-.18.23a19.63,19.63,0,0,1-.6-2.31,1,1,0,0,0-.1-.27,38.35,38.35,0,0,0-2.42-4c-7.85-11.4-18.21-11.57-25.78-11.69-2.89,0-5.39-.08-7.06-.76a4.67,4.67,0,0,1-3-3c-1.8-5.68,5.09-17.29,10.43-25.53l.21-.34c9.69-14.95,15.53-24,39.86-22.78,24.71,1.22,41,9.72,61.62,52.83,14.65,30.69,33,39.79,47.74,47.1,3.6,1.78,7.08,3.51,10.28,5.45A119.43,119.43,0,0,1,1632.82,835.9Zm-113.36-61.71c.29-.42.6-.84.92-1.24a21.66,21.66,0,0,1,3-3c6.65-5,14-6.88,21.06-5.3,6.68,1.75,10.51,8.5,8.92,15.66-1.67,6.36-9.65,9.58-16.43,9-6.54-1.32-10.74-3.94-12.86-8a.6.6,0,0,0-.14-.21,27.73,27.73,0,0,1-3.77-5.51C1519.89,775.12,1519.67,774.66,1519.46,774.19Zm142.8,28.71c1.31,1.11,2.51,2.11,3.54,3,10.75,9.09,21.75,30.45,14.46,46.88-4.26,9.57-12.33,16.54-25.42,21.94-16.16,6.66-39.55,10.64-71.49,12.15-13.32.42-35.39-8.52-37-11.36-.46-.8-.58-2.36.55-4.14.88-1.37,3.22-3.86,9-5.07a44.09,44.09,0,0,1,12.8-.46c4.17.37,8.7.89,13.49,1.44,20.21,2.31,43.12,4.94,59-1.06A37.24,37.24,0,0,0,1663.43,843c3.46-10.83,1.46-22.61-5.64-33.19a1.63,1.63,0,0,0-.17-.2,44.16,44.16,0,0,0-5.25-3.91c.37-.95.72-1.92,1.07-2.9q1-2.89,1.85-5.76Zm-17-74.53a63.64,63.64,0,0,1-6-10.63c-2-4.75-2.64-8.68-1.77-11.59a6.79,6.79,0,0,1,2.53-3.65,9.79,9.79,0,0,1,3.77-1.6c7.06-1.49,17.75,2.56,23.23,9.54a15,15,0,0,1,3,13.21c-.92,3.59-3.29,7.65-8,12.06-.62.58-1.27,1.17-2,1.76a49.29,49.29,0,0,1-7,4.94A81,81,0,0,0,1645.22,728.37Zm-72.76-84.72A24.18,24.18,0,0,1,1565,635a19.83,19.83,0,0,1-1.32-3.67,20.89,20.89,0,0,1,4.56-18.76,29.69,29.69,0,0,1,16.38-10,24.07,24.07,0,0,1,11,.2,23.78,23.78,0,0,1,4.7,1.79l.08,0c6.83,2.75,9.86,9.9,11.21,15.42.31,1.28.57,2.63.77,4a74,74,0,0,1-1,15.88c0,.14-.05.29-.07.43-.21,1.34-.45,2.71-.72,4.08l-.27,1.35a49.68,49.68,0,0,1-24.78,3,31.68,31.68,0,0,1-11.57-4C1573.47,644.34,1573,644,1572.46,643.65Zm27.18,30.2c-.31.44-.63.86-1,1.26a47.66,47.66,0,0,1-7.27.13c-1.35-.1-2.71-.25-4.13-.45l-1.72-.27a80.05,80.05,0,0,1-13.18-3.12l-1.76-.61a55.82,55.82,0,0,1-13.94-7.41l-.59-.45-.74-.56c-1.11-.85-2.18-1.74-3.17-2.64s-2-1.87-2.88-2.85a39.18,39.18,0,0,1-9.82-18.31s0,0,0-.05c-.37-1.39-.71-2.89-1-4.43a121.42,121.42,0,0,1-1.52-13.85c0-.34,0-.67-.07-1-.2-3.05-.42-6.18-.76-9.27-.13-1.16-.28-2.32-.46-3.47-.26-2-.57-3.9-.9-5.74a97.6,97.6,0,0,0-2.77-11.54c-.34-1.55-.67-3.13-1-4.7a55.5,55.5,0,0,1-1.36-10.91.75.75,0,0,0,0-.21,22.86,22.86,0,0,1,.64-9.37,22.39,22.39,0,0,1,2.3-5.46c4.09-6.59,9.41-10.41,15.81-11.36,14.14-2.11,31.19,9.76,43,20.09l.12.09c1.56,1,3,1.94,4.36,2.78,1.52.93,3,1.81,4.53,2.62l.12.06c11.94,4.78,26.8,10.74,33.35,24.93a32.58,32.58,0,0,1,1.77,4.93,34.43,34.43,0,0,1,1.17,10.84.13.13,0,0,0,0,.06,35.18,35.18,0,0,1-.3,5.25,29.65,29.65,0,0,1-4.6,12.51,26.86,26.86,0,0,1-2.7,3.47,61,61,0,0,1-12.55,8.11c-1.3.63-2.63,1.22-4,1.77.26-1.35.49-2.68.7-4,.05-.32.1-.64.14-1a75.17,75.17,0,0,0,.94-16,.17.17,0,0,0,0-.07c-.21-1.45-.48-2.88-.81-4.24-2.09-8.57-6.38-14.39-12.42-16.83a26,26,0,0,0-5.07-1.92c-10.29-2.68-21.88,1.44-29.52,10.51a23,23,0,0,0-5,20.61,21.38,21.38,0,0,0,1.47,4.08c.41.81.87,1.58,1.34,2.32a25.87,25.87,0,0,0,6.75,7.1c.47.34,1,.67,1.45,1,10.27,6.42,24.83,6.26,37.18,1.81C1607.58,657.85,1604.06,667.66,1599.64,673.85Z"/><path class="cls-8" d="M473,922s-1.21,16-7,16c-13,0-15.14-12.56-9.09-18.4,14.37-13.84,69.43,62.6,63.61,14.36"/><path class="cls-8" d="M222,906s-19,17-42.75,21.76a132.65,132.65,0,0,1-24.42,2.08c-59.27.43-113.61-26.78-152.28-71.69l-15.68-18.21"/><path class="cls-11" d="M600,948s-12.74,17.62-27,20c-18,3-30.39-23.07-14-34,9-6,15.44-4.17,20-2,21,10,20.1,35.18,100.4,40.76C783.77,980,879,903,974,898c66.57-3.5,169.76-3.84,199-44"/><path class="cls-8" d="M1663.5,606.5c30-9,56-4,67,9,12.23,14.45,61.61,55.53,112.8,55.26"/><path class="cls-8" d="M308,945c-47,31-117,15-140.12-37.15s-66-341.79-66-341.79S94.05,512.58,122,493.79"/></svg>